<?xml version="1.0" encoding="UTF-8" standalone="no"?>
<svg
   id="레이어_1"
   data-name="레이어 1"
   viewBox="0 0 64 64"
   version="1.1"
   sodipodi:docname="nimf-rime-traditional.svg"
   inkscape:version="1.1.1 (3bf5ae0d25, 2021-09-20)"
   xmlns:inkscape="http://www.inkscape.org/namespaces/inkscape"
   xmlns:sodipodi="http://sodipodi.sourceforge.net/DTD/sodipodi-0.dtd"
   xmlns="http://www.w3.org/2000/svg"
   xmlns:svg="http://www.w3.org/2000/svg">
  <sodipodi:namedview
     id="namedview13"
     pagecolor="#ffffff"
     bordercolor="#666666"
     borderopacity="1.0"
     inkscape:pageshadow="2"
     inkscape:pageopacity="0.0"
     inkscape:pagecheckerboard="0"
     showgrid="false"
     inkscape:zoom="11.046875"
     inkscape:cx="31.954738"
     inkscape:cy="32"
     inkscape:window-width="1920"
     inkscape:window-height="1019"
     inkscape:window-x="0"
     inkscape:window-y="33"
     inkscape:window-maximized="1"
     inkscape:current-layer="레이어_1" />
  <defs
     id="defs4">
    <style
       id="style2">.cls-1{fill:#fff;}.cls-2{fill:#262933;}</style>
  </defs>
  <title
     id="title6">nimf-rime-traditional</title>
  <g
     id="g107"
     transform="matrix(0.85696631,0,0,0.8536344,4.4143495,4.8358935)">
    <path
       class="cls-1"
       d="M 51.78,0 H 12.22 A 12.23,12.23 0 0 0 0,12.22 V 51.78 A 12.23,12.23 0 0 0 12.22,64 H 51.78 A 12.23,12.23 0 0 0 64,51.78 V 12.22 A 12.23,12.23 0 0 0 51.78,0 Z"
       id="path8"
       style="fill:#f9f9f9" />
    <path
       class="cls-2"
       d="m 12.63,50.13 a 33.54,33.54 0 0 0 6.11,-14.62 l 3.44,0.6 c -1.29,6.62 -3.36,11.83 -6.11,15.52 z M 19.29,31.68 A 37.17,37.17 0 0 0 12.76,27 l 2.11,-3.05 a 41,41 0 0 1 6.66,4.86 z m 0.56,-9.8 a 42.65,42.65 0 0 0 -6.49,-5.12 l 2.24,-2.92 a 35.81,35.81 0 0 1 6.62,5.24 z m 30,10.84 a 0.43,0.43 0 0 1 -0.48,0.47 H 38.69 V 35 h 11.69 v 3.14 H 38.69 l -0.13,1.81 h 13.16 v 3.35 h -12 c 2.71,3.27 7,5.21 12.82,5.59 l -1.04,3.52 c -6.45,-0.47 -11.31,-2.92 -14.49,-7.22 -2.24,4.25 -6.79,6.23 -14.49,7.35 l -1.29,-3.61 c 6.88,-0.43 11.22,-2.37 13,-5.64 H 23.12 v -3.35 h 12 l 0.13,-1.81 H 24.28 V 35 H 35.2 V 33.2 H 24.45 c -0.3,0 -0.43,-0.17 -0.43,-0.47 v -7.32 c 0,-0.26 0.13,-0.39 0.43,-0.39 H 35.2 v -1.89 h -5.63 a 1.29,1.29 0 0 1 -1.42,-1.47 v -3.91 h -6 v -3.31 h 6 v -1.89 h 3.48 v 1.89 h 10.63 v -1.89 h 3.48 v 1.89 h 6.32 v 3.31 h -6.32 v 3.91 a 1.3,1.3 0 0 1 -1.46,1.47 H 38.69 V 25 h 10.7 c 0.3,0 0.48,0.13 0.48,0.39 z M 35.2,28 h -7.69 c -0.13,0 -0.18,0 -0.13,0.12 v 1.94 l 0.13,0.17 h 7.69 z m 6.54,-7.87 c 0.34,0 0.52,-0.13 0.52,-0.52 V 17.75 H 31.63 v 1.85 c 0,0.39 0.18,0.52 0.52,0.52 z M 46.38,28 h -7.69 v 2.23 h 7.69 l 0.18,-0.17 v -1.95 z"
       id="path10" />
  </g>
</svg>
