<svg id="레이어_1" data-name="레이어 1" xmlns="http://www.w3.org/2000/svg" viewBox="0 0 64 64"><defs><style>.cls-1{fill:#fff;}.cls-2{fill:#262933;}</style></defs><title>nimf-m17n-ml</title><path class="cls-1" d="M51.78,0H12.22A12.23,12.23,0,0,0,0,12.22V51.78A12.23,12.23,0,0,0,12.22,64H51.78A12.23,12.23,0,0,0,64,51.78V12.22A12.23,12.23,0,0,0,51.78,0Z"/><path class="cls-2" d="M45.62,47.13H40.87V31.06q0-6.91-5-6.91a6.91,6.91,0,0,0-2.23.37,5.66,5.66,0,0,0-3.43,3.08,6.66,6.66,0,0,0-.56,2.82V47.13H24.85V31.06c0-4.61-1.69-6.91-5.05-6.91a7.45,7.45,0,0,0-2.23.34,5.6,5.6,0,0,0-3.43,3,6,6,0,0,0-.56,2.71v17H8.82V20.33h4.71V24h.05A6.87,6.87,0,0,1,16.15,21a8.21,8.21,0,0,1,4.58-1.17A9.12,9.12,0,0,1,25.41,21a7.37,7.37,0,0,1,3,3.3,10.91,10.91,0,0,1,3.21-3.21,9.35,9.35,0,0,1,5.12-1.24,8.48,8.48,0,0,1,6.52,2.52q2.35,2.52,2.35,7.18Z"/><path class="cls-2" d="M55.18,10.08V47.13H50.42V10.08Z"/></svg>