<svg id="레이어_1" data-name="레이어 1" xmlns="http://www.w3.org/2000/svg" viewBox="0 0 64 64"><defs><style>.cls-1{fill:#fff;}.cls-2{fill:#262933;}</style></defs><title>nimf-m17n-hy</title><rect class="cls-1" width="64" height="64" rx="12.22" ry="12.22"/><path class="cls-2" d="M31.58,47.13H26.83V30.47q0-3.39-1.42-4.9A5.79,5.79,0,0,0,21,24.05a7.31,7.31,0,0,0-2.43.42,6.55,6.55,0,0,0-2.15,1.22,6.39,6.39,0,0,0-1.57,2,6.17,6.17,0,0,0-.61,2.8V47.13H9.48V10.08h4.76V23.56a7.91,7.91,0,0,1,3.21-2.77,10.76,10.76,0,0,1,4.73-.95,11.29,11.29,0,0,1,3.67.58,8.42,8.42,0,0,1,3,1.77,8.13,8.13,0,0,1,2,3,11.15,11.15,0,0,1,.73,4.21Z"/><path class="cls-2" d="M45.65,41.74,52.7,20.33h5L43.79,58.2l-4.32-1.52L43,47.52,33.2,20.33h5.15l7.1,21.41Z"/></svg>