<svg id="레이어_1" data-name="레이어 1" xmlns="http://www.w3.org/2000/svg" viewBox="0 0 64 64"><defs><style>.cls-1{fill:#fff;}.cls-2{fill:#262933;}</style></defs><title>nimf-m17n-lo</title><rect class="cls-1" width="64" height="64" rx="12.22" ry="12.22"/><path class="cls-2" d="M21.2,10.08V47.13H16.44V10.08Z"/><path class="cls-2" d="M37,19.84q5.53,0,8.75,3.18t3.21,9v3.28q0,5.84-3.21,9T37,47.52q-5.53,0-8.74-3.18t-3.21-9V32q0-5.88,3.21-9T37,19.84Zm0,23.52a6.8,6.8,0,0,0,5.17-2.09c1.32-1.39,2-3.5,2-6.34v-2.5c0-2.84-.67-5-2-6.35A6.83,6.83,0,0,0,37,24a6.86,6.86,0,0,0-5.17,2.08q-2,2.09-2,6.35v2.5q0,4.26,2,6.34A6.83,6.83,0,0,0,37,43.36Z"/></svg>