<svg id="레이어_1" data-name="레이어 1" xmlns="http://www.w3.org/2000/svg" viewBox="0 0 64 64"><defs><style>.cls-1{fill:#fff;}.cls-2{fill:#262933;}</style></defs><title>nimf-m17n-t</title><path class="cls-1" d="M51.78,0H12.22A12.23,12.23,0,0,0,0,12.22V51.78A12.23,12.23,0,0,0,12.22,64H51.78A12.23,12.23,0,0,0,64,51.78V12.22A12.23,12.23,0,0,0,51.78,0Z"/><path class="cls-2" d="M28,24.39H23.55V20.33H28V13.56h4.75v6.77h7.06v4.06H32.71V39.63a6.43,6.43,0,0,0,.25,2,2.44,2.44,0,0,0,.71,1.15,2.58,2.58,0,0,0,1.1.54,6.55,6.55,0,0,0,1.37.14,10.44,10.44,0,0,0,3.53-.63l.73,3.82a11.92,11.92,0,0,1-2.2.61,14.5,14.5,0,0,1-2.79.27q-3.82,0-5.64-1.91c-1.21-1.27-1.81-3.27-1.81-6Z"/></svg>