<svg id="레이어_1" data-name="레이어 1" xmlns="http://www.w3.org/2000/svg" viewBox="0 0 64 64"><defs><style>.cls-1{fill:#fff;}.cls-2{fill:#262933;}</style></defs><title>nimf-m17n-taii</title><rect class="cls-1" width="64" height="64" rx="12.22" ry="12.22"/><path class="cls-2" d="M10.54,24.39H6.13V20.33h4.41V13.56h4.75v6.77h7.06v4.06H15.29V39.63a6.43,6.43,0,0,0,.25,2,2.44,2.44,0,0,0,.71,1.15,2.58,2.58,0,0,0,1.1.54,6.55,6.55,0,0,0,1.37.14,10.44,10.44,0,0,0,3.53-.63L23,46.64a11.92,11.92,0,0,1-2.2.61,14.5,14.5,0,0,1-2.79.27q-3.82,0-5.64-1.91c-1.21-1.27-1.81-3.27-1.81-6Z"/><path class="cls-2" d="M32.93,47.52a9.64,9.64,0,0,1-6.44-2A6.84,6.84,0,0,1,24.11,40V38.65a7.31,7.31,0,0,1,2.3-5.58q2.31-2.16,7.45-2.16h6.81V29.34a5.41,5.41,0,0,0-1.3-4c-.86-.87-2.27-1.3-4.23-1.3a10.32,10.32,0,0,0-4.1.74,21.52,21.52,0,0,0-3.6,2l-2.35-3.53a22.56,22.56,0,0,1,4.41-2.38,14.89,14.89,0,0,1,5.68-1,14,14,0,0,1,4.12.56,9.25,9.25,0,0,1,3.21,1.67,7.73,7.73,0,0,1,2.11,2.69,8.34,8.34,0,0,1,.76,3.6V47.13H40.82V43.89h0a5.13,5.13,0,0,1-1.05,1.35,7.93,7.93,0,0,1-1.45,1.06,9.89,9.89,0,0,1-2.33.9A12.39,12.39,0,0,1,32.93,47.52Zm7.74-12.59H34A5.92,5.92,0,0,0,30,36a3.79,3.79,0,0,0-1.2,3v.68a3.11,3.11,0,0,0,1.37,2.84,5.91,5.91,0,0,0,3.28.88A9.94,9.94,0,0,0,36.48,43a7.86,7.86,0,0,0,2.38-1.25,4.28,4.28,0,0,0,1.4-1.69,6.41,6.41,0,0,0,.41-2.48Z"/><path class="cls-2" d="M55.13,10.72v5.2H50.08v-5.2ZM55,20.33v26.8H50.23V20.33Z"/></svg>