<svg id="레이어_1" data-name="레이어 1" xmlns="http://www.w3.org/2000/svg" viewBox="0 0 64 64"><defs><style>.cls-1{fill:#fff;}.cls-2{fill:#262933;}</style></defs><title>nimf-m17n-fr</title><rect class="cls-1" width="64" height="64" rx="12.22" ry="12.22"/><path class="cls-2" d="M18,24.39H13.6V20.33H18V17.68q0-4.06,2-6a8,8,0,0,1,5.8-1.91,18.2,18.2,0,0,1,2.62.2,11.36,11.36,0,0,1,2.18.49l-.73,3.87a13.41,13.41,0,0,0-3.63-.49,6.35,6.35,0,0,0-1.32.14,2.47,2.47,0,0,0-1.1.57,3,3,0,0,0-.76,1.2,6,6,0,0,0-.3,2.11v2.45h7.06v4.06H22.76V47.13H18Z"/><path class="cls-2" d="M49.66,25a7.88,7.88,0,0,0-1.49-.46,8.28,8.28,0,0,0-1.79-.18,6.39,6.39,0,0,0-2.52.52,5.88,5.88,0,0,0-2.08,1.47,7.31,7.31,0,0,0-1.43,2.28,7.74,7.74,0,0,0-.53,2.89V47.13H35.06V20.33h4.61v4.26h0a9.23,9.23,0,0,1,3.06-3.51,8.62,8.62,0,0,1,4.83-1.24,11.59,11.59,0,0,1,3.48.54Z"/></svg>