<svg id="레이어_1" data-name="레이어 1" xmlns="http://www.w3.org/2000/svg" viewBox="0 0 64 64"><defs><style>.cls-1{fill:#fff;}.cls-2{fill:#262933;}</style></defs><title>nimf-m17n-he</title><rect class="cls-1" width="64" height="64" rx="12.22" ry="12.22"/><path class="cls-2" d="M30.7,47.13H26V30.47c0-2.26-.48-3.89-1.42-4.9a5.79,5.79,0,0,0-4.41-1.52,7.31,7.31,0,0,0-2.43.42A6.4,6.4,0,0,0,14,27.72a6.17,6.17,0,0,0-.61,2.8V47.13H8.6V10.08h4.76V23.56a7.91,7.91,0,0,1,3.21-2.77,10.71,10.71,0,0,1,4.72-.95,11.35,11.35,0,0,1,3.68.58,8.42,8.42,0,0,1,3,1.77,8.13,8.13,0,0,1,2,3,11.15,11.15,0,0,1,.73,4.21Z"/><path class="cls-2" d="M56.23,44.58A17.4,17.4,0,0,1,52,46.66a18.85,18.85,0,0,1-6.13.86,14.68,14.68,0,0,1-4.63-.71,10,10,0,0,1-3.72-2.2A10.09,10.09,0,0,1,35,40.76a15.41,15.41,0,0,1-.91-5.59v-3A15.34,15.34,0,0,1,35,26.79,10.55,10.55,0,0,1,37.39,23,10.06,10.06,0,0,1,41,20.62a13.16,13.16,0,0,1,4.61-.78A10.86,10.86,0,0,1,53.83,23c2,2.09,3,5.05,3,8.87v3.58h-18v.19a7.81,7.81,0,0,0,2,5.81,7.16,7.16,0,0,0,5.25,2,14.4,14.4,0,0,0,4.53-.63A15.43,15.43,0,0,0,54.22,41ZM45.65,23.9a6.94,6.94,0,0,0-2.72.52A6.3,6.3,0,0,0,39.35,28a7.68,7.68,0,0,0-.52,2.82v.69H52.26v-.88a6.84,6.84,0,0,0-1.76-4.93A6.44,6.44,0,0,0,45.65,23.9Z"/></svg>