<svg id="레이어_1" data-name="레이어 1" xmlns="http://www.w3.org/2000/svg" viewBox="0 0 64 64"><defs><style>.cls-1{fill:#fff;}.cls-2{fill:#262933;}</style></defs><title>nimf-m17n-hi</title><rect class="cls-1" width="64" height="64" rx="12.22" ry="12.22"/><path class="cls-2" d="M39.13,47.13H34.37V30.47q0-3.39-1.42-4.9a5.79,5.79,0,0,0-4.41-1.52,7.25,7.25,0,0,0-2.42.42A6.6,6.6,0,0,0,24,25.69a6.39,6.39,0,0,0-1.57,2,6.17,6.17,0,0,0-.61,2.8V47.13H17V10.08h4.75V23.56A8,8,0,0,1,25,20.79a10.76,10.76,0,0,1,4.73-.95,11.29,11.29,0,0,1,3.67.58,8.33,8.33,0,0,1,3,1.77,8.13,8.13,0,0,1,2,3,11.14,11.14,0,0,1,.74,4.21Z"/><path class="cls-2" d="M49,10.72v5.2h-5v-5.2Zm-.14,9.61v26.8H44.07V20.33Z"/></svg>