<svg id="레이어_1" data-name="레이어 1" xmlns="http://www.w3.org/2000/svg" viewBox="0 0 64 64"><defs><style>.cls-1{fill:#fff;}.cls-2{fill:#262933;}</style></defs><title>nimf-m17n-da</title><rect class="cls-1" width="64" height="64" rx="12.22" ry="12.22"/><path class="cls-2" d="M25.83,43.8a6.31,6.31,0,0,1-3.21,2.89,12.36,12.36,0,0,1-4.58.83q-5.1,0-7.77-3T7.6,36.1V31.35a14.18,14.18,0,0,1,.78-4.85,10.26,10.26,0,0,1,2.18-3.63,9.29,9.29,0,0,1,3.36-2.25,11.56,11.56,0,0,1,4.31-.78,9.66,9.66,0,0,1,4.88,1.05,8.3,8.3,0,0,1,2.62,2.23v-13h4.75V47.13H25.92V43.8Zm0-14.12a4.45,4.45,0,0,0-.52-2.05,5.7,5.7,0,0,0-1.47-1.84,7.63,7.63,0,0,0-2.25-1.3A8.11,8.11,0,0,0,18.72,24,5.72,5.72,0,0,0,14,26.11,9.28,9.28,0,0,0,12.3,32v3.28A9.13,9.13,0,0,0,14,41.25a5.74,5.74,0,0,0,4.7,2.11,8,8,0,0,0,2.75-.47,6.67,6.67,0,0,0,2.23-1.35,6.44,6.44,0,0,0,1.51-2.13,6.7,6.7,0,0,0,.57-2.82Z"/><path class="cls-2" d="M43.12,47.52a9.64,9.64,0,0,1-6.44-2A6.84,6.84,0,0,1,34.3,40V38.65a7.28,7.28,0,0,1,2.31-5.58q2.3-2.16,7.44-2.16h6.82V29.34a5.46,5.46,0,0,0-1.3-4,5.82,5.82,0,0,0-4.24-1.3,10.27,10.27,0,0,0-4.09.74,22,22,0,0,0-3.61,2l-2.35-3.53a22.56,22.56,0,0,1,4.41-2.38,14.94,14.94,0,0,1,5.69-1,14,14,0,0,1,4.11.56,9.25,9.25,0,0,1,3.21,1.67,7.73,7.73,0,0,1,2.11,2.69,8.2,8.2,0,0,1,.76,3.6V47.13H51V43.89h0a5.13,5.13,0,0,1-1.05,1.35,7.6,7.6,0,0,1-1.45,1.06,9.81,9.81,0,0,1-2.32.9A12.54,12.54,0,0,1,43.12,47.52Zm7.75-12.59H44.15a5.92,5.92,0,0,0-4,1.08A3.79,3.79,0,0,0,39,39v.68a3.13,3.13,0,0,0,1.37,2.84,5.91,5.91,0,0,0,3.28.88A9.94,9.94,0,0,0,46.67,43a7.86,7.86,0,0,0,2.38-1.25,4.2,4.2,0,0,0,1.4-1.69,6.22,6.22,0,0,0,.42-2.48Z"/></svg>