<svg id="레이어_1" data-name="레이어 1" xmlns="http://www.w3.org/2000/svg" viewBox="0 0 64 64"><defs><style>.cls-1{fill:#fff;}.cls-2{fill:#262933;}</style></defs><title>nimf-m17n-ath</title><rect class="cls-1" width="64" height="64" rx="12.22" ry="12.22"/><path class="cls-2" d="M12.79,47.52a6.73,6.73,0,0,1-5.15-2A7.71,7.71,0,0,1,5.74,40V38.65a8.27,8.27,0,0,1,1.84-5.58c1.23-1.44,3.21-2.16,6-2.16H19V29.34a6.35,6.35,0,0,0-1-4,4.1,4.1,0,0,0-3.39-1.3,6.82,6.82,0,0,0-3.28.74,16.73,16.73,0,0,0-2.88,2L6.52,23.22a17.2,17.2,0,0,1,3.53-2.38,9.81,9.81,0,0,1,4.55-1,9.16,9.16,0,0,1,3.29.56,7.06,7.06,0,0,1,2.57,1.67,7.74,7.74,0,0,1,1.68,2.69,9.92,9.92,0,0,1,.61,3.6V47.13H19.1V43.89h0a5.26,5.26,0,0,1-.84,1.35,6.43,6.43,0,0,1-1.16,1.06,7,7,0,0,1-1.86.9A8,8,0,0,1,12.79,47.52ZM19,34.93H13.62A4.1,4.1,0,0,0,10.42,36a4.32,4.32,0,0,0-1,3v.68a3.43,3.43,0,0,0,1.1,2.84,4,4,0,0,0,2.62.88A6.48,6.48,0,0,0,15.63,43a6,6,0,0,0,1.91-1.25,4.15,4.15,0,0,0,1.11-1.69A7.72,7.72,0,0,0,19,37.57Z"/><path class="cls-2" d="M27.84,24.39H24.32V20.33h3.52V13.56h3.81v6.77h5.64v4.06H31.65V39.63a8.31,8.31,0,0,0,.19,2,2.58,2.58,0,0,0,.57,1.15,2,2,0,0,0,.88.54,4.3,4.3,0,0,0,1.1.14,6.86,6.86,0,0,0,2.82-.63l.59,3.82a8.07,8.07,0,0,1-1.76.61,9.4,9.4,0,0,1-2.24.27,5.31,5.31,0,0,1-4.51-1.91c-1-1.27-1.45-3.27-1.45-6Z"/><path class="cls-2" d="M57.48,47.13h-3.8V30.47q0-3.39-1.14-4.9A4.13,4.13,0,0,0,49,24.05a4.81,4.81,0,0,0-1.94.42,5.07,5.07,0,0,0-1.72,1.22,6.49,6.49,0,0,0-1.26,2,7.64,7.64,0,0,0-.49,2.8V47.13H39.8V10.08h3.8V23.56a7,7,0,0,1,2.57-2.77A7.17,7.17,0,0,1,50,19.84a7.38,7.38,0,0,1,2.94.58,6.55,6.55,0,0,1,2.39,1.77,8.43,8.43,0,0,1,1.61,3,13.72,13.72,0,0,1,.59,4.21Z"/></svg>