<svg id="레이어_1" data-name="레이어 1" xmlns="http://www.w3.org/2000/svg" viewBox="0 0 64 64"><defs><style>.cls-1{fill:#fff;}.cls-2{fill:#262933;}</style></defs><title>nimf-m17n-be</title><rect class="cls-1" width="64" height="64" rx="12.22" ry="12.22"/><path class="cls-2" d="M14.43,23.41a6.7,6.7,0,0,1,3.36-2.79,12.05,12.05,0,0,1,4.28-.78c3.4,0,6,1,7.79,3s2.7,4.79,2.7,8.45V36a14.1,14.1,0,0,1-.78,4.87,10.45,10.45,0,0,1-2.18,3.6,9.62,9.62,0,0,1-3.36,2.26,11.56,11.56,0,0,1-4.31.78,9.62,9.62,0,0,1-4.85-1.05A7.51,7.51,0,0,1,14.38,44h-.1v3.14H9.68V10.08h4.75Zm0,14.16a4.67,4.67,0,0,0,.52,2.09,5.66,5.66,0,0,0,1.47,1.86,8,8,0,0,0,2.22,1.32,7.61,7.61,0,0,0,2.85.52,5.75,5.75,0,0,0,4.73-2.11,9.3,9.3,0,0,0,1.69-5.93V32a9.17,9.17,0,0,0-1.72-5.93A5.72,5.72,0,0,0,21.44,24a7.76,7.76,0,0,0-2.75.49,7,7,0,0,0-2.23,1.37A6.72,6.72,0,0,0,14.94,28a6.92,6.92,0,0,0-.56,2.82Z"/><path class="cls-2" d="M57.16,44.58a17.3,17.3,0,0,1-4.22,2.08,18.74,18.74,0,0,1-6.12.86,14.64,14.64,0,0,1-4.63-.71,10,10,0,0,1-3.73-2.2A10.33,10.33,0,0,1,36,40.76a15.64,15.64,0,0,1-.9-5.59v-3a15.11,15.11,0,0,1,.86-5.34A10.55,10.55,0,0,1,38.32,23,10,10,0,0,1,42,20.62a13.14,13.14,0,0,1,4.6-.78A10.89,10.89,0,0,1,54.76,23q3,3.13,3,8.87v3.58h-18v.19a7.81,7.81,0,0,0,2,5.81,7.15,7.15,0,0,0,5.24,2,14.42,14.42,0,0,0,4.54-.63A15.83,15.83,0,0,0,55.15,41ZM46.57,23.9a7,7,0,0,0-2.72.52,6.35,6.35,0,0,0-2.15,1.42A6.28,6.28,0,0,0,40.28,28a7.48,7.48,0,0,0-.52,2.82v.69H53.19v-.88a6.8,6.8,0,0,0-1.77-4.93A6.41,6.41,0,0,0,46.57,23.9Z"/></svg>