<svg id="레이어_1" data-name="레이어 1" xmlns="http://www.w3.org/2000/svg" viewBox="0 0 64 64"><defs><style>.cls-1{fill:#fff;}.cls-2{fill:#262933;}</style></defs><title>nimf-m17n-sv</title><rect class="cls-1" width="64" height="64" rx="12.22" ry="12.22"/><path class="cls-2" d="M21.39,43.4a7.67,7.67,0,0,0,4.11-.93A2.87,2.87,0,0,0,27,39.93v-.4a3.77,3.77,0,0,0-.24-1.42,2.37,2.37,0,0,0-.93-1,7.88,7.88,0,0,0-1.86-.8,31.79,31.79,0,0,0-3.09-.76,27.06,27.06,0,0,1-3.92-1.08A10.93,10.93,0,0,1,14,32.89a6,6,0,0,1-1.79-2.18,6.91,6.91,0,0,1-.61-3v-.59a6.6,6.6,0,0,1,.58-2.7A6.38,6.38,0,0,1,14,22.07a9.4,9.4,0,0,1,3.11-1.62,14.53,14.53,0,0,1,4.48-.61,20.36,20.36,0,0,1,5.12.61,13.22,13.22,0,0,1,4.39,2L29,26.06a10.73,10.73,0,0,0-3.16-1.57A12.72,12.72,0,0,0,22,23.9a7.72,7.72,0,0,0-4.29.91,2.72,2.72,0,0,0-1.3,2.33v.44a2.52,2.52,0,0,0,1.32,2.33,15.51,15.51,0,0,0,4.46,1.34,29.4,29.4,0,0,1,4.27,1.08,10.2,10.2,0,0,1,3,1.59,6.08,6.08,0,0,1,1.77,2.28,7.87,7.87,0,0,1,.59,3.19V40A6.32,6.32,0,0,1,31.07,43a7.11,7.11,0,0,1-2,2.38,10.25,10.25,0,0,1-3.21,1.59,14,14,0,0,1-4.24.59,19.88,19.88,0,0,1-6.12-.88,15.32,15.32,0,0,1-4.66-2.35L13,40.56a19.85,19.85,0,0,0,3.87,2A12.39,12.39,0,0,0,21.39,43.4Z"/><path class="cls-2" d="M44.12,42.67l7-22.34h5l-9.07,26.8H41l-9.17-26.8H37L44,42.67Z"/></svg>