<svg id="레이어_1" data-name="레이어 1" xmlns="http://www.w3.org/2000/svg" viewBox="0 0 64 64"><defs><style>.cls-1{fill:#fff;}.cls-2{fill:#262933;}</style></defs><title>nimf-m17n-cmc</title><rect class="cls-1" width="64" height="64" rx="12.22" ry="12.22"/><path class="cls-2" d="M10.65,19.84a7.72,7.72,0,0,1,3.82.83,10.41,10.41,0,0,1,2.66,2.11l-1.58,3.57a7.62,7.62,0,0,0-2.41-1.83,6.46,6.46,0,0,0-2.49-.47,3.87,3.87,0,0,0-1.78.44,4.08,4.08,0,0,0-1.51,1.4,7.64,7.64,0,0,0-1.05,2.42,13.93,13.93,0,0,0-.39,3.53v3.38a15.27,15.27,0,0,0,.39,3.7,7.74,7.74,0,0,0,1.06,2.5,4.26,4.26,0,0,0,1.55,1.4,4,4,0,0,0,1.8.44,6.17,6.17,0,0,0,3.07-.69A9,9,0,0,0,16,40.81l1.61,3.62a9.69,9.69,0,0,1-2.67,2.14,8.61,8.61,0,0,1-4.26,1,6.79,6.79,0,0,1-6-3.23c-1.4-2.16-2.11-5.16-2.11-9V31.89a20.24,20.24,0,0,1,.59-5.12A12.09,12.09,0,0,1,4.77,23,7.19,7.19,0,0,1,7.3,20.64,7,7,0,0,1,10.65,19.84Z"/><path class="cls-2" d="M45,47.13H41.69V31.06q0-6.91-3.53-6.91a3.5,3.5,0,0,0-1.56.37,4,4,0,0,0-1.39,1.12,6.11,6.11,0,0,0-1,2,8.84,8.84,0,0,0-.4,2.82V47.13H30.47V31.06c0-4.61-1.17-6.91-3.53-6.91a3.82,3.82,0,0,0-1.56.34A3.92,3.92,0,0,0,24,25.57a5.82,5.82,0,0,0-1,1.89,8.41,8.41,0,0,0-.4,2.71v17H19.26V20.33h3.29V24h0A6.74,6.74,0,0,1,24.39,21a4.49,4.49,0,0,1,3.2-1.17A5,5,0,0,1,30.87,21,7.1,7.1,0,0,1,33,24.29a10,10,0,0,1,2.24-3.21,5.11,5.11,0,0,1,3.59-1.24,5.17,5.17,0,0,1,4.56,2.52Q45,24.88,45,29.54Z"/><path class="cls-2" d="M55.51,19.84a7.76,7.76,0,0,1,3.83.83A10.58,10.58,0,0,1,62,22.78l-1.58,3.57A7.64,7.64,0,0,0,58,24.52a6.39,6.39,0,0,0-2.49-.47,3.9,3.9,0,0,0-1.78.44,4.16,4.16,0,0,0-1.51,1.4,8.12,8.12,0,0,0-1,2.42,13.93,13.93,0,0,0-.39,3.53v3.38a15.27,15.27,0,0,0,.39,3.7,7.74,7.74,0,0,0,1.07,2.5,4.23,4.23,0,0,0,1.54,1.4,4,4,0,0,0,1.8.44,6.14,6.14,0,0,0,3.07-.69,9,9,0,0,0,2.21-1.76l1.62,3.62a9.89,9.89,0,0,1-2.68,2.14,8.59,8.59,0,0,1-4.25,1,6.77,6.77,0,0,1-6-3.23c-1.41-2.16-2.11-5.16-2.11-9V31.89A20.27,20.27,0,0,1,48,26.77,12.09,12.09,0,0,1,49.63,23a7.22,7.22,0,0,1,2.54-2.36A7,7,0,0,1,55.51,19.84Z"/></svg>