<?xml version="1.0" encoding="UTF-8" standalone="no"?>
<svg
   id="레이어_1"
   data-name="레이어 1"
   viewBox="0 0 64 64"
   version="1.1"
   sodipodi:docname="nimf-anthy.svg"
   inkscape:version="1.1.1 (3bf5ae0d25, 2021-09-20)"
   xmlns:inkscape="http://www.inkscape.org/namespaces/inkscape"
   xmlns:sodipodi="http://sodipodi.sourceforge.net/DTD/sodipodi-0.dtd"
   xmlns="http://www.w3.org/2000/svg"
   xmlns:svg="http://www.w3.org/2000/svg">
  <sodipodi:namedview
     id="namedview13"
     pagecolor="#ffffff"
     bordercolor="#666666"
     borderopacity="1.0"
     inkscape:pageshadow="2"
     inkscape:pageopacity="0.0"
     inkscape:pagecheckerboard="0"
     showgrid="false"
     inkscape:zoom="11.046875"
     inkscape:cx="31.954738"
     inkscape:cy="32"
     inkscape:window-width="1920"
     inkscape:window-height="1019"
     inkscape:window-x="0"
     inkscape:window-y="33"
     inkscape:window-maximized="1"
     inkscape:current-layer="레이어_1" />
  <defs
     id="defs4">
    <style
       id="style2">.cls-1{fill:#fff;}.cls-2{fill:#262933;}</style>
  </defs>
  <title
     id="title6">nimf-anthy</title>
  <g
     id="g35"
     transform="matrix(0.86608093,0,0,0.86379001,3.9530199,4.1113949)">
    <rect
       class="cls-1"
       width="64"
       height="64"
       rx="12.22"
       ry="12.22"
       id="rect8"
       style="fill:#f9f9f9"
       x="0"
       y="0" />
    <path
       class="cls-2"
       d="m 35.77,47.37 a 22.65,22.65 0 0 0 7.79,-2.49 7.75,7.75 0 0 0 2.85,-2.88 8.08,8.08 0 0 0 0.93,-3.92 7.34,7.34 0 0 0 -2.16,-5.24 9.47,9.47 0 0 0 -2.06,-1.64 10.2,10.2 0 0 0 -2.69,-1.05 32.55,32.55 0 0 1 -4,8 38.54,38.54 0 0 1 -5.43,6.33 23.57,23.57 0 0 1 -5.51,3.87 11.84,11.84 0 0 1 -5.22,1.33 5,5 0 0 1 -0.56,0 4.08,4.08 0 0 1 -0.52,-0.07 7,7 0 0 1 -4.31,-2 8.69,8.69 0 0 1 -2.25,-6.42 12.06,12.06 0 0 1 3.52,-8.09 19.08,19.08 0 0 1 7.42,-5.1 c 0,-0.91 0,-2 0.05,-3.16 0.05,-1.16 0.05,-2.36 0.05,-3.5 H 15.54 V 17.58 H 24 q 0.11,-1.86 0.3,-3.6 c 0.13,-1.16 0.29,-2.26 0.49,-3.31 h 3.87 q -0.24,1.58 -0.42,3.24 c -0.11,1.11 -0.23,2.27 -0.37,3.48 q 3.63,-0.06 7.55,-0.22 3.92,-0.16 7.89,-0.52 v 3.68 c -2.65,0.22 -5.27,0.4 -7.86,0.51 -2.59,0.11 -5.22,0.2 -7.87,0.27 0,0.39 0,0.85 0,1.37 0,0.52 0,1.05 -0.05,1.57 -0.05,0.52 0,1 0,1.52 v 1.32 a 29.29,29.29 0 0 1 3.9,-0.73 29.83,29.83 0 0 1 3.7,-0.25 23.88,23.88 0 0 1 6.69,0.84 16.63,16.63 0 0 1 5.17,2.49 10.34,10.34 0 0 1 4.46,8.82 11.19,11.19 0 0 1 -4.56,9.46 14.58,14.58 0 0 1 -4,2.25 28.41,28.41 0 0 1 -5.17,1.38 z M 23.67,31.94 a 12.61,12.61 0 0 0 -2.84,1.71 15.09,15.09 0 0 0 -2.26,2.26 8.27,8.27 0 0 0 -2.15,5.29 6.25,6.25 0 0 0 0.27,1.89 3.76,3.76 0 0 0 3.89,2.67 6.74,6.74 0 0 0 2.53,-0.52 8,8 0 0 0 2.47,-1.59 24.71,24.71 0 0 1 -1.37,-5.56 60.91,60.91 0 0 1 -0.54,-6.15 z m 5.15,9.55 a 27.12,27.12 0 0 0 4.41,-5.43 43.22,43.22 0 0 0 3.28,-6.52 h -0.93 a 33.2,33.2 0 0 0 -4.46,0.29 23.24,23.24 0 0 0 -3.68,0.79 c 0,1.86 0.16,3.73 0.37,5.61 a 32.7,32.7 0 0 0 1.01,5.26 z"
       id="path10" />
  </g>
</svg>
