<?xml version="1.0" encoding="UTF-8" standalone="no"?>
<svg
   id="레이어_1"
   data-name="레이어 1"
   viewBox="0 0 64 64"
   version="1.1"
   sodipodi:docname="nimf-focus-out.svg"
   inkscape:version="1.1.1 (3bf5ae0d25, 2021-09-20)"
   xmlns:inkscape="http://www.inkscape.org/namespaces/inkscape"
   xmlns:sodipodi="http://sodipodi.sourceforge.net/DTD/sodipodi-0.dtd"
   xmlns:xlink="http://www.w3.org/1999/xlink"
   xmlns="http://www.w3.org/2000/svg"
   xmlns:svg="http://www.w3.org/2000/svg">
  <sodipodi:namedview
     id="namedview33"
     pagecolor="#ffffff"
     bordercolor="#666666"
     borderopacity="1.0"
     inkscape:pageshadow="2"
     inkscape:pageopacity="0.0"
     inkscape:pagecheckerboard="0"
     showgrid="false"
     inkscape:zoom="11.046875"
     inkscape:cx="10.319661"
     inkscape:cy="32"
     inkscape:window-width="1920"
     inkscape:window-height="1019"
     inkscape:window-x="0"
     inkscape:window-y="33"
     inkscape:window-maximized="1"
     inkscape:current-layer="레이어_1" />
  <defs
     id="defs18">
    <style
       id="style2">.cls-1{fill:#fff;}.cls-2{fill:#4bced6;}.cls-3{fill:url(#무제_그라디언트_43);}.cls-4{fill:url(#무제_그라디언트_43-2);}</style>
    <linearGradient
       id="무제_그라디언트_43"
       x1="18.87"
       y1="12.57"
       x2="18.87"
       y2="45.02"
       gradientUnits="userSpaceOnUse">
      <stop
         offset="0"
         stop-color="#50d7d7"
         id="stop4" />
      <stop
         offset="0.2"
         stop-color="#41bdd4"
         id="stop6" />
      <stop
         offset="0.84"
         stop-color="#8253d6"
         id="stop8" />
      <stop
         offset="0.89"
         stop-color="#8457d6"
         id="stop10" />
      <stop
         offset="0.95"
         stop-color="#8963d6"
         id="stop12" />
      <stop
         offset="1"
         stop-color="#9174d6"
         id="stop14" />
    </linearGradient>
    <linearGradient
       id="무제_그라디언트_43-2"
       x1="-612.83"
       y1="12.57"
       x2="-612.83"
       y2="45.02"
       gradientTransform="matrix(-1, 0, 0, 1, -567.69, 0)"
       xlink:href="#무제_그라디언트_43" />
  </defs>
  <title
     id="title20">님프1</title>
  <path
     class="cls-1"
     d="M 48.87823,4.601826 15.191127,4.9813332 A 10.415058,10.35585 0 0 0 4.903152,15.445281 L 5.284829,48.940876 A 10.415058,10.35585 0 0 0 15.808602,59.170365 L 49.495705,58.790859 A 10.415058,10.35585 0 0 0 59.783679,48.326912 L 59.402003,14.831316 A 10.415058,10.35585 0 0 0 48.87823,4.601826 Z"
     id="path22"
     style="fill:#f9f9f9;stroke-width:0.849175" />
  <path
     class="cls-2"
     d="M19.49,38.76h10.2a1.52,1.52,0,0,1,1.52,1.52V48.1A5.88,5.88,0,0,1,25.33,54H13.89a0,0,0,0,1,0,0V44.36a5.6,5.6,0,0,1,5.6-5.6Z"
     transform="translate(45.09 92.73) rotate(-180)"
     id="path24" />
  <path
     class="cls-3"
     d="M10.05,16.63H21.87A9.34,9.34,0,0,1,31.21,26h0V48.16l-5.55-6.94a6.38,6.38,0,0,0-5-2.39H13.82a7.29,7.29,0,0,1-7.29-7.3V20.16A3.52,3.52,0,0,1,10.05,16.63Z"
     id="path26" />
  <path
     class="cls-2"
     d="M32.79,33.13H44.24A5.88,5.88,0,0,1,50.11,39v7.81a1.52,1.52,0,0,1-1.52,1.52H38.4a5.6,5.6,0,0,1-5.6-5.6V33.13A0,0,0,0,1,32.79,33.13Z"
     id="path28" />
  <path
     class="cls-4"
     d="M54,11H42.13a9.34,9.34,0,0,0-9.34,9.34h0v22.2l5.55-6.95a6.38,6.38,0,0,1,5-2.39h6.86a7.29,7.29,0,0,0,7.29-7.3V14.53A3.52,3.52,0,0,0,54,11Z"
     id="path30" />
</svg>
