<?xml version="1.0" encoding="UTF-8" standalone="no"?>
<svg
   id="레이어_1"
   data-name="레이어 1"
   viewBox="0 0 64 64"
   version="1.1"
   sodipodi:docname="nimf-libhangul.svg"
   inkscape:version="1.1.1 (3bf5ae0d25, 2021-09-20)"
   xmlns:inkscape="http://www.inkscape.org/namespaces/inkscape"
   xmlns:sodipodi="http://sodipodi.sourceforge.net/DTD/sodipodi-0.dtd"
   xmlns="http://www.w3.org/2000/svg"
   xmlns:svg="http://www.w3.org/2000/svg">
  <sodipodi:namedview
     id="namedview13"
     pagecolor="#ffffff"
     bordercolor="#666666"
     borderopacity="1.0"
     inkscape:pageshadow="2"
     inkscape:pageopacity="0.0"
     inkscape:pagecheckerboard="0"
     showgrid="false"
     inkscape:zoom="5.5234375"
     inkscape:cx="2.8967468"
     inkscape:cy="43.722772"
     inkscape:window-width="1920"
     inkscape:window-height="1019"
     inkscape:window-x="0"
     inkscape:window-y="33"
     inkscape:window-maximized="1"
     inkscape:current-layer="레이어_1" />
  <defs
     id="defs4">
    <style
       id="style2">.cls-1{fill:#fff;}</style>
  </defs>
  <title
     id="title6">한1</title>
  <g
     id="g13"
     transform="matrix(1.0554712,0,0,1.0541183,-2.2393976,-1.723443)">
    <g
       id="g161"
       transform="matrix(1.094379,0,0,1.0518054,6.6715218,5.9769757)">
      <path
         class="cls-1"
         d="M 38.258658,0 H 9.0289842 A 9.0363729,9.4160941 0 0 0 0,9.4083949 V 39.866341 a 9.0363729,9.4160941 0 0 0 9.0289842,9.408395 H 38.258658 a 9.0363729,9.4160941 0 0 0 9.028985,-9.408395 V 9.4083949 A 9.0363729,9.4160941 0 0 0 38.258658,0 Z M 9.2728112,12.318684 H 16.595007 V 8.3767051 h 3.354467 v 3.9419789 h 7.292641 v 2.964183 H 9.2728112 Z m 2.1501098,13.473561 a 5.2164181,5.4356193 0 0 1 -0.458099,-2.209664 v -1.085584 a 5.3272485,5.551107 0 0 1 0.458099,-2.240461 5.2755276,5.4972127 0 0 1 1.374297,-1.901697 7.2335316,7.5374948 0 0 1 2.268329,-1.347356 9.4723059,9.8703455 0 0 1 3.191916,-0.508146 9.4279737,9.8241505 0 0 1 3.184527,0.508146 6.908429,7.1987309 0 0 1 2.26833,1.362754 5.2976937,5.5203103 0 0 1 1.41124,1.924795 5.2090294,5.4279201 0 0 1 0.458099,2.201965 v 1.062486 a 5.2164181,5.4356193 0 0 1 -0.458099,2.209664 5.3715806,5.597302 0 0 1 -1.41124,1.947892 6.8936516,7.1833326 0 0 1 -2.283107,1.331958 9.2432564,9.631671 0 0 1 -3.184527,0.515845 9.2875885,9.6778661 0 0 1 -3.191916,-0.515845 6.9749273,7.2680235 0 0 1 -2.253552,-1.331958 5.5636867,5.7974806 0 0 1 -1.374297,-1.947892 z M 34.423926,40.898031 H 14.474452 v -9.000339 h 3.361856 v 5.966863 H 34.423926 Z M 38.014831,21.403713 H 33.581615 V 32.336545 H 30.256703 V 8.6923714 h 3.324912 v 9.6778656 h 4.433216 z"
         id="path8"
         style="fill:#f9f9f9;stroke-width:0.754234" />
      <path
         class="cls-1"
         d="m 16.359606,26.52953 a 5.9103749,5.7340289 0 0 0 1.920082,0.283635 5.9735875,5.7953554 0 0 0 1.920081,-0.283635 3.9902932,3.8712361 0 0 0 1.374874,-0.766581 3.1606283,3.0663256 0 0 0 0.790157,-1.088546 3.2317424,3.1353179 0 0 0 0.276555,-1.249527 v -0.705255 a 3.3107582,3.2119761 0 0 0 -1.090417,-2.338073 3.9507854,3.832907 0 0 0 -1.35907,-0.766582 5.7049341,5.5347177 0 0 0 -1.935885,-0.283635 5.7207372,5.5500494 0 0 0 -1.943786,0.283635 3.9507854,3.832907 0 0 0 -1.359071,0.766582 3.2238409,3.1276521 0 0 0 -0.790157,1.096211 3.1606283,3.0663256 0 0 0 -0.268653,1.241862 v 0.705255 a 3.2159393,3.1199863 0 0 0 0.268653,1.257193 3.1606283,3.0663256 0 0 0 0.790157,1.088546 3.9507854,3.832907 0 0 0 1.40648,0.758915 z"
         id="path10"
         style="fill:#f9f9f9;stroke-width:0.77828" />
    </g>
  </g>
</svg>
