<svg id="레이어_1" data-name="레이어 1" xmlns="http://www.w3.org/2000/svg" viewBox="0 0 64 64"><defs><style>.cls-1{fill:#fff;}.cls-2{fill:#262933;}</style></defs><title>nimf-rime-simplified</title><rect class="cls-1" width="64" height="64" rx="12.22" ry="12.22"/><path class="cls-2" d="M25.51,36.58A39.87,39.87,0,0,1,14.8,52.07l-1.72-3.53a36.31,36.31,0,0,0,5.33-6,40.48,40.48,0,0,0,4-7.48ZM14.8,24A47.31,47.31,0,0,1,23,28.76l-1.85,3a44.5,44.5,0,0,0-8-4.64ZM17,13.06a47.05,47.05,0,0,1,8.09,5L23.14,21a42.14,42.14,0,0,0-7.87-4.82ZM49.76,52.19A33.41,33.41,0,0,1,39.18,43.9a46.62,46.62,0,0,1-13.29,8.38l-2.23-3.7A45,45,0,0,0,37,40.93c-1.64-2.62-5.16-8.39-7.53-22.45H27.83V15H48.51l1.76,1.68c-.9,9.2-3.09,16.55-6.62,22-.6.91-1.33,1.81-2,2.67a28.34,28.34,0,0,0,11,7.74ZM32.9,18.48c1.42,8.47,3.7,15.7,6.54,20a17,17,0,0,0,1.33-1.72c2.93-4.42,4.9-10.53,5.85-18.23Z"/></svg>