<svg id="레이어_1" data-name="레이어 1" xmlns="http://www.w3.org/2000/svg" xmlns:xlink="http://www.w3.org/1999/xlink" viewBox="0 0 64 64"><defs><style>.cls-1{fill:#fff;}.cls-2{fill:#4bced6;}.cls-3{fill:url(#무제_그라디언트_43);}.cls-4{fill:url(#무제_그라디언트_43-2);}</style><linearGradient id="무제_그라디언트_43" x1="18.87" y1="12.57" x2="18.87" y2="45.02" gradientUnits="userSpaceOnUse"><stop offset="0" stop-color="#50d7d7"/><stop offset="0.2" stop-color="#41bdd4"/><stop offset="0.84" stop-color="#8253d6"/><stop offset="0.89" stop-color="#8457d6"/><stop offset="0.95" stop-color="#8963d6"/><stop offset="1" stop-color="#9174d6"/></linearGradient><linearGradient id="무제_그라디언트_43-2" x1="-612.83" y1="12.57" x2="-612.83" y2="45.02" gradientTransform="matrix(-1, 0, 0, 1, -567.69, 0)" xlink:href="#무제_그라디언트_43"/></defs><title>님프1</title><path class="cls-1" d="M51.78,0H12.22A12.23,12.23,0,0,0,0,12.22V51.78A12.23,12.23,0,0,0,12.22,64H51.78A12.23,12.23,0,0,0,64,51.78V12.22A12.23,12.23,0,0,0,51.78,0Z"/><path class="cls-2" d="M19.49,38.76h10.2a1.52,1.52,0,0,1,1.52,1.52V48.1A5.88,5.88,0,0,1,25.33,54H13.89a0,0,0,0,1,0,0V44.36a5.6,5.6,0,0,1,5.6-5.6Z" transform="translate(45.09 92.73) rotate(-180)"/><path class="cls-3" d="M10.05,16.63H21.87A9.34,9.34,0,0,1,31.21,26h0V48.16l-5.55-6.94a6.38,6.38,0,0,0-5-2.39H13.82a7.29,7.29,0,0,1-7.29-7.3V20.16A3.52,3.52,0,0,1,10.05,16.63Z"/><path class="cls-2" d="M32.79,33.13H44.24A5.88,5.88,0,0,1,50.11,39v7.81a1.52,1.52,0,0,1-1.52,1.52H38.4a5.6,5.6,0,0,1-5.6-5.6V33.13A0,0,0,0,1,32.79,33.13Z"/><path class="cls-4" d="M54,11H42.13a9.34,9.34,0,0,0-9.34,9.34h0v22.2l5.55-6.95a6.38,6.38,0,0,1,5-2.39h6.86a7.29,7.29,0,0,0,7.29-7.3V14.53A3.52,3.52,0,0,0,54,11Z"/></svg>