<svg id="레이어_1" data-name="레이어 1" xmlns="http://www.w3.org/2000/svg" viewBox="0 0 64 64"><defs><style>.cls-1{fill:#fff;}.cls-2{fill:#262933;}</style></defs><title>nimf-rime-traditional</title><path class="cls-1" d="M51.78,0H12.22A12.23,12.23,0,0,0,0,12.22V51.78A12.23,12.23,0,0,0,12.22,64H51.78A12.23,12.23,0,0,0,64,51.78V12.22A12.23,12.23,0,0,0,51.78,0Z"/><path class="cls-2" d="M12.63,50.13a33.54,33.54,0,0,0,6.11-14.62l3.44.6c-1.29,6.62-3.36,11.83-6.11,15.52Zm6.66-18.45A37.17,37.17,0,0,0,12.76,27l2.11-3.05a41,41,0,0,1,6.66,4.86Zm.56-9.8a42.65,42.65,0,0,0-6.49-5.12l2.24-2.92a35.81,35.81,0,0,1,6.62,5.24Zm30,10.84a.43.43,0,0,1-.48.47H38.69V35H50.38v3.14H38.69l-.13,1.81H51.72v3.35h-12c2.71,3.27,7,5.21,12.82,5.59L51.5,52.41c-6.45-.47-11.31-2.92-14.49-7.22-2.24,4.25-6.79,6.23-14.49,7.35l-1.29-3.61c6.88-.43,11.22-2.37,13-5.64H23.12V39.94h12l.13-1.81H24.28V35H35.2v-1.8H24.45c-.3,0-.43-.17-.43-.47V25.41c0-.26.13-.39.43-.39H35.2V23.13H29.57a1.29,1.29,0,0,1-1.42-1.47V17.75h-6V14.44h6V12.55h3.48v1.89H42.26V12.55h3.48v1.89h6.32v3.31H45.74v3.91a1.3,1.3,0,0,1-1.46,1.47H38.69V25h10.7c.3,0,.48.13.48.39ZM35.2,28H27.51c-.13,0-.18,0-.13.12v1.94l.13.17H35.2Zm6.54-7.87c.34,0,.52-.13.52-.52V17.75H31.63V19.6c0,.39.18.52.52.52ZM46.38,28H38.69v2.23h7.69l.18-.17V28.11Z"/></svg>