<svg id="레이어_1" data-name="레이어 1" xmlns="http://www.w3.org/2000/svg" xmlns:xlink="http://www.w3.org/1999/xlink" viewBox="0 0 64 64"><defs><style>.cls-1{fill:#dfedf2;}.cls-2{fill:#4bced6;}.cls-3{fill:url(#무제_그라디언트_43);}.cls-4{fill:url(#무제_그라디언트_43-2);}</style><linearGradient id="무제_그라디언트_43" x1="18.1" y1="11.37" x2="18.1" y2="45.96" gradientUnits="userSpaceOnUse"><stop offset="0" stop-color="#50d7d7"/><stop offset="0.2" stop-color="#41bdd4"/><stop offset="0.84" stop-color="#8253d6"/><stop offset="0.89" stop-color="#8457d6"/><stop offset="0.95" stop-color="#8963d6"/><stop offset="1" stop-color="#9174d6"/></linearGradient><linearGradient id="무제_그라디언트_43-2" x1="-385.8" y1="11.37" x2="-385.8" y2="45.96" gradientTransform="matrix(-1, 0, 0, 1, -339.69, 0)" xlink:href="#무제_그라디언트_43"/></defs><title>nimf-logo</title><path class="cls-1" d="M49.6,64H14.4A14.4,14.4,0,0,1,0,49.6V14.4A14.4,14.4,0,0,1,14.4,0H49.6A14.4,14.4,0,0,1,64,14.4V49.6A14.4,14.4,0,0,1,49.6,64Z"/><path class="cls-2" d="M18.77,39.28H29.63a1.62,1.62,0,0,1,1.62,1.62v8.33A6.27,6.27,0,0,1,25,55.5H12.8a0,0,0,0,1,0,0V45.25A6,6,0,0,1,18.77,39.28Z" transform="translate(44.05 94.78) rotate(-180)"/><path class="cls-3" d="M8.71,15.69H21.3a10,10,0,0,1,10,10h0V49.31l-5.92-7.4A6.77,6.77,0,0,0,20,39.35H12.73A7.77,7.77,0,0,1,5,31.58V19.45A3.76,3.76,0,0,1,8.71,15.69Z"/><path class="cls-2" d="M32.95,33.28h12.2a6.27,6.27,0,0,1,6.27,6.27v8.33a1.62,1.62,0,0,1-1.62,1.62H38.92a6,6,0,0,1-6-6V33.28a0,0,0,0,1,0,0Z"/><path class="cls-4" d="M55.5,9.69H42.9a10,10,0,0,0-9.95,10h0V43.31l5.91-7.4a6.78,6.78,0,0,1,5.31-2.56h7.31a7.78,7.78,0,0,0,7.78-7.77V13.45A3.77,3.77,0,0,0,55.5,9.69Z"/></svg>