<svg id="레이어_1" data-name="레이어 1" xmlns="http://www.w3.org/2000/svg" viewBox="0 0 64 64"><defs><style>.cls-1{fill:#fff;}.cls-2{fill:#262933;}</style></defs><title>nimf-anthy</title><rect class="cls-1" width="64" height="64" rx="12.22" ry="12.22"/><path class="cls-2" d="M35.77,47.37a22.65,22.65,0,0,0,7.79-2.49A7.75,7.75,0,0,0,46.41,42a8.08,8.08,0,0,0,.93-3.92,7.34,7.34,0,0,0-2.16-5.24,9.47,9.47,0,0,0-2.06-1.64,10.2,10.2,0,0,0-2.69-1.05,32.55,32.55,0,0,1-4,8A38.54,38.54,0,0,1,31,44.48a23.57,23.57,0,0,1-5.51,3.87,11.84,11.84,0,0,1-5.22,1.33,5,5,0,0,1-.56,0,4.08,4.08,0,0,1-.52-.07,7,7,0,0,1-4.31-2,8.69,8.69,0,0,1-2.25-6.42,12.06,12.06,0,0,1,3.52-8.09A19.08,19.08,0,0,1,23.57,28c0-.91,0-2,.05-3.16s.05-2.36.05-3.5H15.54V17.58H24q.11-1.86.3-3.6c.13-1.16.29-2.26.49-3.31h3.87q-.24,1.58-.42,3.24c-.11,1.11-.23,2.27-.37,3.48q3.63-.06,7.55-.22t7.89-.52v3.68c-2.65.22-5.27.4-7.86.51s-5.22.2-7.87.27c0,.39,0,.85,0,1.37s0,1.05-.05,1.57,0,1,0,1.52v1.32a29.29,29.29,0,0,1,3.9-.73,29.83,29.83,0,0,1,3.7-.25,23.88,23.88,0,0,1,6.69.84,16.63,16.63,0,0,1,5.17,2.49,10.34,10.34,0,0,1,4.46,8.82,11.19,11.19,0,0,1-4.56,9.46,14.58,14.58,0,0,1-4,2.25,28.41,28.41,0,0,1-5.17,1.38ZM23.67,31.94a12.61,12.61,0,0,0-2.84,1.71,15.09,15.09,0,0,0-2.26,2.26,8.27,8.27,0,0,0-2.15,5.29,6.25,6.25,0,0,0,.27,1.89,3.76,3.76,0,0,0,3.89,2.67,6.74,6.74,0,0,0,2.53-.52,8,8,0,0,0,2.47-1.59,24.71,24.71,0,0,1-1.37-5.56A60.91,60.91,0,0,1,23.67,31.94Zm5.15,9.55a27.12,27.12,0,0,0,4.41-5.43,43.22,43.22,0,0,0,3.28-6.52h-.93a33.2,33.2,0,0,0-4.46.29,23.24,23.24,0,0,0-3.68.79c0,1.86.16,3.73.37,5.61A32.7,32.7,0,0,0,28.82,41.49Z"/></svg>