<svg id="레이어_1" data-name="레이어 1" xmlns="http://www.w3.org/2000/svg" viewBox="0 0 64 64"><defs><style>.cls-1{fill:#fff;}</style></defs><title>님프키보드</title><path class="cls-1" d="M51.64,0H12.08A12.23,12.23,0,0,0-.14,12.22V51.78A12.23,12.23,0,0,0,12.08,64H51.64A12.23,12.23,0,0,0,63.86,51.78V12.22A12.23,12.23,0,0,0,51.64,0ZM47.16,30.48a2,2,0,0,1,2-2h5.49a2,2,0,0,1,2,2V33a2,2,0,0,1-2,2H49.16a2,2,0,0,1-2-2Zm-7.36,0a2,2,0,0,1,2-2h1.41a2,2,0,0,1,2,2V33a2,2,0,0,1-2,2H41.8a2,2,0,0,1-2-2Zm0,7.26a2,2,0,0,1,2,2v2.49a2,2,0,0,1-2,2H38.43a2,2,0,0,1-2-2V39.74a2,2,0,0,1,2-2Zm-7.62-7.26a2,2,0,0,1,2-2h1.41a2,2,0,0,1,2,2V33a2,2,0,0,1-2,2H34.22a2,2,0,0,1-2-2Zm0,7.26a2,2,0,0,1,2,2v2.49a2,2,0,0,1-2,2H30.85a2,2,0,0,1-2-2V39.74a2,2,0,0,1,2-2Zm-7.62-7.26a2,2,0,0,1,2-2h1.41a2,2,0,0,1,2,2V33a2,2,0,0,1-2,2H26.64a2,2,0,0,1-2-2Zm0,7.26a2,2,0,0,1,2,2v2.49a2,2,0,0,1-2,2H23.27a2,2,0,0,1-2-2V39.74a2,2,0,0,1,2-2Zm-7.62-7.26a2,2,0,0,1,2-2h1.41a2,2,0,0,1,2,2V33a2,2,0,0,1-2,2H19.06a2,2,0,0,1-2-2Zm2.53,9.26v2.49a2,2,0,0,1-2,2H9a2,2,0,0,1-2-2V39.74a2,2,0,0,1,2-2h8.64A2,2,0,0,1,19.59,39.74ZM6.72,30.48a2,2,0,0,1,2-2h3.81a2,2,0,0,1,2,2V33a2,2,0,0,1-2,2H8.72a2,2,0,0,1-2-2Zm5.64,21a2,2,0,0,1-2,2H9a2,2,0,0,1-2-2V49a2,2,0,0,1,2-2h1.41a2,2,0,0,1,2,2Zm36.71,0a2,2,0,0,1-2,2H16.52a2,2,0,0,1-2-2V49a2,2,0,0,1,2-2H47.07a2,2,0,0,1,2,2Zm.35-9.27a2,2,0,0,1-2,2H46a2,2,0,0,1-2-2V39.74a2,2,0,0,1,2-2h1.4a2,2,0,0,1,2,2ZM57,51.5a2,2,0,0,1-2,2H53.6a2,2,0,0,1-2-2V49a2,2,0,0,1,2-2H55a2,2,0,0,1,2,2Zm0-9.27a2,2,0,0,1-2,2H53.6a2,2,0,0,1-2-2V39.74a2,2,0,0,1,2-2H55a2,2,0,0,1,2,2Z"/></svg>