<svg id="레이어_1" data-name="레이어 1" xmlns="http://www.w3.org/2000/svg" viewBox="0 0 64 64"><defs><style>.cls-1{fill:#fff;}.cls-2{fill:#262933;}</style></defs><title>nimf-system-keyboard</title><rect class="cls-1" width="64" height="64" rx="12.22" ry="12.22"/><rect class="cls-2" x="28.99" y="37.74" width="5.41" height="6.49" rx="2" ry="2"/><rect class="cls-2" x="32.36" y="28.48" width="5.41" height="6.49" rx="2" ry="2"/><rect class="cls-2" x="24.78" y="28.48" width="5.41" height="6.49" rx="2" ry="2"/><rect class="cls-2" x="39.94" y="28.48" width="5.41" height="6.49" rx="2" ry="2"/><rect class="cls-2" x="47.29" y="28.48" width="9.49" height="6.49" rx="2" ry="2"/><rect class="cls-2" x="36.57" y="37.74" width="5.41" height="6.49" rx="2" ry="2"/><rect class="cls-2" x="17.2" y="28.48" width="5.41" height="6.49" rx="2" ry="2"/><rect class="cls-2" x="21.41" y="37.74" width="5.41" height="6.49" rx="2" ry="2"/><rect class="cls-2" x="51.73" y="47.01" width="5.41" height="6.49" rx="2" ry="2"/><rect class="cls-2" x="44.15" y="37.74" width="5.41" height="6.49" rx="2" ry="2"/><rect class="cls-2" x="51.73" y="37.74" width="5.41" height="6.49" rx="2" ry="2"/><rect class="cls-2" x="7.09" y="47.01" width="5.41" height="6.49" rx="2" ry="2"/><rect class="cls-2" x="14.66" y="47.01" width="34.55" height="6.49" rx="2" ry="2"/><rect class="cls-2" x="6.86" y="28.48" width="7.81" height="6.49" rx="2" ry="2"/><rect class="cls-2" x="7.09" y="37.74" width="12.64" height="6.49" rx="2" ry="2"/></svg>