<svg id="레이어_1" data-name="레이어 1" xmlns="http://www.w3.org/2000/svg" viewBox="0 0 64 64"><defs><style>.cls-1{fill:#fff;}</style></defs><title>한1</title><path class="cls-1" d="M51.78,0H12.22A12.23,12.23,0,0,0,0,12.22V51.78A12.23,12.23,0,0,0,12.22,64H51.78A12.23,12.23,0,0,0,64,51.78V12.22A12.23,12.23,0,0,0,51.78,0ZM12.55,16h9.91V10.88H27V16h9.87v3.85H12.55Zm2.91,17.5a7.06,7.06,0,0,1-.62-2.87V29.22a7.21,7.21,0,0,1,.62-2.91,7.14,7.14,0,0,1,1.86-2.47,9.79,9.79,0,0,1,3.07-1.75,12.82,12.82,0,0,1,4.32-.66,12.76,12.76,0,0,1,4.31.66,9.35,9.35,0,0,1,3.07,1.77A7.17,7.17,0,0,1,34,26.36a7.05,7.05,0,0,1,.62,2.86V30.6A7.06,7.06,0,0,1,34,33.47,7.27,7.27,0,0,1,32.09,36,9.33,9.33,0,0,1,29,37.73a12.51,12.51,0,0,1-4.31.67,12.57,12.57,0,0,1-4.32-.67A9.44,9.44,0,0,1,17.32,36,7.53,7.53,0,0,1,15.46,33.47ZM46.59,53.12h-27V41.43h4.55v7.75H46.59ZM51.45,27.8h-6V42h-4.5V11.29h4.5V23.86h6Z"/><path class="cls-1" d="M22.28,34.41a7.48,7.48,0,0,0,2.43.37,7.56,7.56,0,0,0,2.43-.37,5.05,5.05,0,0,0,1.74-1,4,4,0,0,0,1-1.42,4.09,4.09,0,0,0,.35-1.63v-.92a4.19,4.19,0,0,0-1.38-3.05,5,5,0,0,0-1.72-1,7.22,7.22,0,0,0-2.45-.37,7.24,7.24,0,0,0-2.46.37,5,5,0,0,0-1.72,1,4.08,4.08,0,0,0-1,1.43,4,4,0,0,0-.34,1.62v.92A4.07,4.07,0,0,0,19.5,32a4,4,0,0,0,1,1.42A5,5,0,0,0,22.28,34.41Z"/></svg>