<svg id="레이어_1" data-name="레이어 1" xmlns="http://www.w3.org/2000/svg" viewBox="0 0 64 64"><defs><style>.cls-1{fill:#fff;}.cls-2{fill:#262933;}</style></defs><title>nimf-m17n-el</title><path class="cls-1" d="M51.78,0H12.22A12.23,12.23,0,0,0,0,12.22V51.78A12.23,12.23,0,0,0,12.22,64H51.78A12.23,12.23,0,0,0,64,51.78V12.22A12.23,12.23,0,0,0,51.78,0Z"/><path class="cls-2" d="M37.81,44.58a17.3,17.3,0,0,1-4.22,2.08,18.74,18.74,0,0,1-6.12.86,14.64,14.64,0,0,1-4.63-.71,10,10,0,0,1-3.73-2.2,10.33,10.33,0,0,1-2.5-3.85,15.64,15.64,0,0,1-.9-5.59v-3a15.11,15.11,0,0,1,.86-5.34A10.55,10.55,0,0,1,19,23a10,10,0,0,1,3.65-2.33,13.14,13.14,0,0,1,4.6-.78A10.89,10.89,0,0,1,35.41,23q3,3.13,3,8.87v3.58h-18v.19a7.81,7.81,0,0,0,2,5.81,7.15,7.15,0,0,0,5.24,2,14.42,14.42,0,0,0,4.54-.63A15.83,15.83,0,0,0,35.8,41ZM27.22,23.9a7,7,0,0,0-2.72.52,6.35,6.35,0,0,0-2.15,1.42A6.28,6.28,0,0,0,20.93,28a7.48,7.48,0,0,0-.52,2.82v.69H33.84v-.88a6.8,6.8,0,0,0-1.77-4.93A6.41,6.41,0,0,0,27.22,23.9Z"/><path class="cls-2" d="M46.92,10.08V47.13H42.17V10.08Z"/></svg>