<svg id="레이어_1" data-name="레이어 1" xmlns="http://www.w3.org/2000/svg" viewBox="0 0 64 64"><defs><style>.cls-1{fill:#fff;}.cls-2{fill:#262933;}</style></defs><title>nimf-m17n-uz</title><path class="cls-1" d="M51.78,0H12.22A12.23,12.23,0,0,0,0,12.22V51.78A12.23,12.23,0,0,0,12.22,64H51.78A12.23,12.23,0,0,0,64,51.78V12.22A12.23,12.23,0,0,0,51.78,0Z"/><path class="cls-2" d="M10,20.33h4.75V37q0,3.38,1.38,4.9a5.59,5.59,0,0,0,4.36,1.51,7.13,7.13,0,0,0,2.4-.41A6.89,6.89,0,0,0,25,41.76a5.94,5.94,0,0,0,1.54-2,6.42,6.42,0,0,0,.59-2.79V20.33H31.9v26.8H27.3V43.75h-.05a8.28,8.28,0,0,1-3.19,2.86,10.29,10.29,0,0,1-4.75,1A11.09,11.09,0,0,1,15.66,47a8.1,8.1,0,0,1-2.94-1.76,8.43,8.43,0,0,1-2-3A11.1,11.1,0,0,1,10,38.06Z"/><path class="cls-2" d="M55.23,24,40.53,43H56v4.12H34.5V43.7L49.39,24.49H35.48V20.33H55.23Z"/></svg>