<svg id="레이어_1" data-name="레이어 1" xmlns="http://www.w3.org/2000/svg" viewBox="0 0 64 64"><defs><style>.cls-1{fill:#fff;}.cls-2{fill:#262933;}</style></defs><title>nimf-m17n-hu</title><path class="cls-1" d="M49.6,64H14.4A14.4,14.4,0,0,1,0,49.6V14.4A14.4,14.4,0,0,1,14.4,0H49.6A14.4,14.4,0,0,1,64,14.4V49.6A14.4,14.4,0,0,1,49.6,64Z"/><path class="cls-2" d="M29.89,47.13H25.14V30.47q0-3.39-1.42-4.9a5.79,5.79,0,0,0-4.41-1.52,7.31,7.31,0,0,0-2.43.42,6.4,6.4,0,0,0-3.72,3.25,6.17,6.17,0,0,0-.61,2.8V47.13H7.79V10.08h4.76V23.56a7.91,7.91,0,0,1,3.21-2.77,10.76,10.76,0,0,1,4.73-.95,11.29,11.29,0,0,1,3.67.58,8.42,8.42,0,0,1,3,1.77,8.13,8.13,0,0,1,2,3,11.15,11.15,0,0,1,.73,4.21Z"/><path class="cls-2" d="M34.3,20.33h4.76V37c0,2.25.45,3.88,1.37,4.9a5.61,5.61,0,0,0,4.36,1.51,7.08,7.08,0,0,0,2.4-.41,6.89,6.89,0,0,0,2.13-1.23,6.09,6.09,0,0,0,1.55-2,6.42,6.42,0,0,0,.58-2.79V20.33h4.76v26.8H51.6V43.75h-.05a8.33,8.33,0,0,1-3.18,2.86,10.36,10.36,0,0,1-4.76,1A11.13,11.13,0,0,1,40,47,8.18,8.18,0,0,1,37,45.27a8.41,8.41,0,0,1-2-3,11.09,11.09,0,0,1-.74-4.24Z"/></svg>