<svg id="레이어_1" data-name="레이어 1" xmlns="http://www.w3.org/2000/svg" viewBox="0 0 64 64"><defs><style>.cls-1{fill:#fff;}.cls-2{fill:#262933;}</style></defs><title>nimf-m17n-kn</title><path class="cls-1" d="M51.78,0H12.22A12.23,12.23,0,0,0,0,12.22V51.78A12.23,12.23,0,0,0,12.22,64H51.78A12.23,12.23,0,0,0,64,51.78V12.22A12.23,12.23,0,0,0,51.78,0Z"/><path class="cls-2" d="M20.39,31.06,31.61,47.13h-6L17.1,34.39l-3.72,3.77v9H8.63V10.08h4.75v22.3L24.85,20.33H31Z"/><path class="cls-2" d="M55.76,47.13H51V30.47q0-3.39-1.42-4.9a5.79,5.79,0,0,0-4.41-1.52,7.31,7.31,0,0,0-2.43.42,6.55,6.55,0,0,0-2.15,1.22,6.39,6.39,0,0,0-1.57,2,6.17,6.17,0,0,0-.61,2.8V47.13H33.67V20.33h4.6v3.38h0a8.21,8.21,0,0,1,3.23-2.87,10.64,10.64,0,0,1,4.81-1,11.29,11.29,0,0,1,3.67.58,8.42,8.42,0,0,1,3,1.77,8.13,8.13,0,0,1,2,3,11.15,11.15,0,0,1,.73,4.21Z"/></svg>