<svg id="레이어_1" data-name="레이어 1" xmlns="http://www.w3.org/2000/svg" viewBox="0 0 64 64"><defs><style>.cls-1{fill:#fff;}.cls-2{fill:#262933;}</style></defs><title>nimf-m17n-mai</title><rect class="cls-1" width="64" height="64" rx="12.22" ry="12.22"/><path class="cls-2" d="M33.94,47.13h-3.8V31.06q0-6.91-4-6.91a4.64,4.64,0,0,0-3.37,1.49,5.92,5.92,0,0,0-1.16,2,8,8,0,0,0-.45,2.82V47.13h-3.8V31.06q0-6.91-4-6.91a4.85,4.85,0,0,0-1.78.34,4.41,4.41,0,0,0-1.59,1.08,5.65,5.65,0,0,0-1.15,1.89,7.39,7.39,0,0,0-.46,2.71v17H4.5V20.33H8.27V24h0A6.71,6.71,0,0,1,10.36,21,5.63,5.63,0,0,1,14,19.84,6.2,6.2,0,0,1,17.77,21a7,7,0,0,1,2.41,3.3,10.15,10.15,0,0,1,2.57-3.21,6.34,6.34,0,0,1,4.1-1.24,6.13,6.13,0,0,1,5.21,2.52q1.88,2.52,1.88,7.18Z"/><path class="cls-2" d="M43.74,47.52a6.73,6.73,0,0,1-5.15-2A7.71,7.71,0,0,1,36.69,40V38.65a8.27,8.27,0,0,1,1.84-5.58c1.23-1.44,3.21-2.16,6-2.16h5.44V29.34a6.35,6.35,0,0,0-1-4,4.1,4.1,0,0,0-3.4-1.3,6.8,6.8,0,0,0-3.27.74,16.36,16.36,0,0,0-2.88,2l-1.88-3.53A16.93,16.93,0,0,1,41,20.84a9.8,9.8,0,0,1,4.54-1,9.18,9.18,0,0,1,3.3.56,7.06,7.06,0,0,1,2.57,1.67,7.74,7.74,0,0,1,1.68,2.69,9.92,9.92,0,0,1,.61,3.6V47.13H50.05V43.89h0a5.26,5.26,0,0,1-.84,1.35A6.43,6.43,0,0,1,48,46.3a7,7,0,0,1-1.86.9A8,8,0,0,1,43.74,47.52Zm6.19-12.59H44.56A4.1,4.1,0,0,0,41.37,36a4.32,4.32,0,0,0-1,3v.68a3.43,3.43,0,0,0,1.1,2.84,4,4,0,0,0,2.62.88A6.52,6.52,0,0,0,46.58,43a5.86,5.86,0,0,0,1.9-1.25,4.08,4.08,0,0,0,1.12-1.69,7.75,7.75,0,0,0,.33-2.48Z"/><path class="cls-2" d="M61.5,10.72v5.2h-4v-5.2Zm-.12,9.61v26.8h-3.8V20.33Z"/></svg>