<svg id="레이어_1" data-name="레이어 1" xmlns="http://www.w3.org/2000/svg" viewBox="0 0 64 64"><defs><style>.cls-1{fill:#fff;}.cls-2{fill:#262933;}</style></defs><title>nimf-m17n-pa</title><rect class="cls-1" width="64" height="64" rx="12.22" ry="12.22"/><path class="cls-2" d="M12.42,23.66a6.71,6.71,0,0,1,3.31-2.94,11.68,11.68,0,0,1,4.53-.88q5.1,0,7.77,3t2.67,8.38V36a14.27,14.27,0,0,1-.78,4.92,10.45,10.45,0,0,1-2.18,3.6,9.12,9.12,0,0,1-3.38,2.23,12.15,12.15,0,0,1-4.39.76,9.22,9.22,0,0,1-4.78-1.08,8.73,8.73,0,0,1-2.62-2.25V57.61H7.82V20.33h4.6Zm.1,13.91A4.67,4.67,0,0,0,13,39.66a5.66,5.66,0,0,0,1.47,1.86,7.93,7.93,0,0,0,2.23,1.32,7.56,7.56,0,0,0,2.84.52,5.75,5.75,0,0,0,4.73-2.11A9.3,9.3,0,0,0,26,35.32V32a9.11,9.11,0,0,0-1.72-5.93A5.72,5.72,0,0,0,19.58,24a7.76,7.76,0,0,0-2.75.49,6.9,6.9,0,0,0-2.22,1.37A6.42,6.42,0,0,0,13.09,28a6.77,6.77,0,0,0-.57,2.82Z"/><path class="cls-2" d="M44.23,47.52a9.67,9.67,0,0,1-6.45-2A6.87,6.87,0,0,1,35.41,40V38.65a7.27,7.27,0,0,1,2.3-5.58c1.53-1.44,4-2.16,7.45-2.16H52V29.34a5.46,5.46,0,0,0-1.3-4,5.82,5.82,0,0,0-4.24-1.3,10.27,10.27,0,0,0-4.09.74,21.52,21.52,0,0,0-3.6,2l-2.35-3.53a22,22,0,0,1,4.41-2.38,14.85,14.85,0,0,1,5.68-1,14.11,14.11,0,0,1,4.12.56,9.25,9.25,0,0,1,3.21,1.67,7.7,7.7,0,0,1,2.1,2.69,8.2,8.2,0,0,1,.76,3.6V47.13H52.12V43.89h0A5.4,5.4,0,0,1,51,45.24a7.86,7.86,0,0,1-1.44,1.06,10.06,10.06,0,0,1-2.33.9A12.45,12.45,0,0,1,44.23,47.52ZM52,34.93H45.25a5.92,5.92,0,0,0-4,1.08,3.79,3.79,0,0,0-1.2,3v.68a3.13,3.13,0,0,0,1.37,2.84,6,6,0,0,0,3.29.88A10,10,0,0,0,47.78,43a8,8,0,0,0,2.38-1.25,4.25,4.25,0,0,0,1.39-1.69A6.22,6.22,0,0,0,52,37.57Z"/></svg>