<svg id="레이어_1" data-name="레이어 1" xmlns="http://www.w3.org/2000/svg" viewBox="0 0 64 64"><defs><style>.cls-1{fill:#fff;}.cls-2{fill:#262933;}</style></defs><title>nimf-m17n-ka</title><path class="cls-1" d="M49.6,64H14.4A14.4,14.4,0,0,1,0,49.6V14.4A14.4,14.4,0,0,1,14.4,0H49.6A14.4,14.4,0,0,1,64,14.4V49.6A14.4,14.4,0,0,1,49.6,64Z"/><path class="cls-2" d="M21.54,31.06,32.76,47.13h-6L18.26,34.39l-3.73,3.77v9H9.78V10.08h4.75v22.3L26,20.33h6.12Z"/><path class="cls-2" d="M42.26,47.52a9.66,9.66,0,0,1-6.44-2A6.87,6.87,0,0,1,33.45,40V38.65a7.27,7.27,0,0,1,2.3-5.58c1.53-1.44,4-2.16,7.45-2.16H50V29.34a5.46,5.46,0,0,0-1.3-4,5.82,5.82,0,0,0-4.24-1.3,10.27,10.27,0,0,0-4.09.74,21.52,21.52,0,0,0-3.6,2l-2.36-3.53a22.56,22.56,0,0,1,4.41-2.38,14.94,14.94,0,0,1,5.69-1,14,14,0,0,1,4.11.56,9.07,9.07,0,0,1,3.21,1.67A7.73,7.73,0,0,1,54,24.76a8.2,8.2,0,0,1,.76,3.6V47.13H50.15V43.89h0a5.13,5.13,0,0,1-1.05,1.35,7.86,7.86,0,0,1-1.44,1.06,10.06,10.06,0,0,1-2.33.9A12.48,12.48,0,0,1,42.26,47.52ZM50,34.93H43.29a5.92,5.92,0,0,0-4,1.08,3.79,3.79,0,0,0-1.2,3v.68a3.13,3.13,0,0,0,1.37,2.84,5.93,5.93,0,0,0,3.28.88A10.05,10.05,0,0,0,45.82,43a7.93,7.93,0,0,0,2.37-1.25,4.2,4.2,0,0,0,1.4-1.69A6.22,6.22,0,0,0,50,37.57Z"/></svg>