<svg id="레이어_1" data-name="레이어 1" xmlns="http://www.w3.org/2000/svg" viewBox="0 0 64 64"><defs><style>.cls-1{fill:#fff;}.cls-2{fill:#262933;}</style></defs><title>nimf-m17n-gu</title><path class="cls-1" d="M49.6,64H14.4A14.4,14.4,0,0,1,0,49.6V14.4A14.4,14.4,0,0,1,14.4,0H49.6A14.4,14.4,0,0,1,64,14.4V49.6A14.4,14.4,0,0,1,49.6,64Z"/><path class="cls-2" d="M29.43,46.79q0,11.26-12,11.27a15.24,15.24,0,0,1-5-.79,13.88,13.88,0,0,1-3.92-2.06l2.16-3.72a12.16,12.16,0,0,0,3.11,1.62,11.35,11.35,0,0,0,3.8.63,7.4,7.4,0,0,0,5.27-1.69c1.19-1.12,1.78-2.88,1.78-5.26V43.5a6.23,6.23,0,0,1-3.18,2.72A12.22,12.22,0,0,1,17,47c-3.4,0-6-1-7.77-3s-2.67-4.8-2.67-8.46V31.35a14.18,14.18,0,0,1,.79-4.85,10.26,10.26,0,0,1,2.18-3.63,9.29,9.29,0,0,1,3.36-2.25,11.52,11.52,0,0,1,4.31-.78,9.59,9.59,0,0,1,4.87,1.05,8.08,8.08,0,0,1,2.62,2.23V20.33h4.76ZM24.72,29.68a4.57,4.57,0,0,0-.51-2.05,5.7,5.7,0,0,0-1.47-1.84,7.76,7.76,0,0,0-2.25-1.3A8.11,8.11,0,0,0,17.67,24a5.71,5.71,0,0,0-4.73,2.11A9.22,9.22,0,0,0,11.25,32v2.79A9.19,9.19,0,0,0,13,40.76a5.76,5.76,0,0,0,4.71,2.11,7.92,7.92,0,0,0,2.74-.47,6.47,6.47,0,0,0,3.75-3.48,6.7,6.7,0,0,0,.56-2.82Z"/><path class="cls-2" d="M34.23,20.33H39V37q0,3.38,1.37,4.9a5.62,5.62,0,0,0,4.36,1.51A7.14,7.14,0,0,0,47.12,43a6.89,6.89,0,0,0,2.13-1.23,6.07,6.07,0,0,0,1.54-2,6.42,6.42,0,0,0,.59-2.79V20.33h4.75v26.8h-4.6V43.75h-.05a8.28,8.28,0,0,1-3.19,2.86,10.29,10.29,0,0,1-4.75,1A11.09,11.09,0,0,1,39.89,47,8.1,8.1,0,0,1,37,45.27a8.43,8.43,0,0,1-2-3,11.1,11.1,0,0,1-.73-4.24Z"/></svg>