<svg id="레이어_1" data-name="레이어 1" xmlns="http://www.w3.org/2000/svg" viewBox="0 0 64 64"><defs><style>.cls-1{fill:#fff;}.cls-2{fill:#262933;}</style></defs><title>nimf-m17n-bo</title><rect class="cls-1" width="64" height="64" rx="12.22" ry="12.22"/><path class="cls-2" d="M12.79,23.41a6.7,6.7,0,0,1,3.36-2.79,12.15,12.15,0,0,1,4.29-.78c3.39,0,6,1,7.79,3s2.69,4.79,2.69,8.45V36a14.1,14.1,0,0,1-.78,4.87A10.3,10.3,0,0,1,28,44.48a9.44,9.44,0,0,1-3.36,2.26,11.56,11.56,0,0,1-4.31.78,9.64,9.64,0,0,1-4.85-1.05A7.51,7.51,0,0,1,12.74,44h-.09v3.14H8V10.08h4.75Zm0,14.16a4.67,4.67,0,0,0,.52,2.09,5.66,5.66,0,0,0,1.47,1.86A7.93,7.93,0,0,0,17,42.84a7.56,7.56,0,0,0,2.84.52,5.75,5.75,0,0,0,4.73-2.11,9.3,9.3,0,0,0,1.69-5.93V32a9.11,9.11,0,0,0-1.72-5.93A5.72,5.72,0,0,0,19.8,24a7.76,7.76,0,0,0-2.75.49,6.9,6.9,0,0,0-2.22,1.37A6.42,6.42,0,0,0,13.31,28a6.77,6.77,0,0,0-.57,2.82Z"/><path class="cls-2" d="M45.38,19.84q5.53,0,8.74,3.18t3.21,9v3.28q0,5.84-3.21,9t-8.74,3.18c-3.7,0-6.61-1.06-8.75-3.18s-3.21-5.13-3.21-9V32q0-5.88,3.21-9C38.77,20.89,41.68,19.84,45.38,19.84Zm0,23.52a6.83,6.83,0,0,0,5.17-2.09q2-2.09,2-6.34v-2.5q0-4.26-2-6.35A6.86,6.86,0,0,0,45.38,24a6.83,6.83,0,0,0-5.17,2.08q-2,2.09-2,6.35v2.5q0,4.26,2,6.34A6.8,6.8,0,0,0,45.38,43.36Z"/></svg>