<svg id="레이어_1" data-name="레이어 1" xmlns="http://www.w3.org/2000/svg" viewBox="0 0 64 64"><defs><style>.cls-1{fill:#fff;}.cls-2{fill:#262933;}</style></defs><title>nimf-m17n-oj</title><path class="cls-1" d="M49.6,64H14.4A14.4,14.4,0,0,1,0,49.6V14.4A14.4,14.4,0,0,1,14.4,0H49.6A14.4,14.4,0,0,1,64,14.4V49.6A14.4,14.4,0,0,1,49.6,64Z"/><path class="cls-2" d="M26.46,19.84q5.53,0,8.75,3.18t3.21,9v3.28q0,5.84-3.21,9t-8.75,3.18q-5.54,0-8.74-3.18t-3.21-9V32q0-5.88,3.21-9T26.46,19.84Zm0,23.52a6.8,6.8,0,0,0,5.17-2.09q2-2.09,2-6.34v-2.5q0-4.26-2-6.35A6.83,6.83,0,0,0,26.46,24a6.86,6.86,0,0,0-5.17,2.08q-2,2.09-2,6.35v2.5q0,4.26,2,6.34A6.83,6.83,0,0,0,26.46,43.36Z"/><path class="cls-2" d="M48,50.17q0,4.06-2,6a8,8,0,0,1-5.81,1.92,18.31,18.31,0,0,1-2.62-.2,11.55,11.55,0,0,1-2.18-.49l.74-3.87a13.29,13.29,0,0,0,3.62.49,5.83,5.83,0,0,0,1.33-.15,2.45,2.45,0,0,0,1.1-.56,3.06,3.06,0,0,0,.76-1.2A6.37,6.37,0,0,0,43.22,50V20.33H48Zm.15-39.45v5.2h-5v-5.2Z"/></svg>