<svg id="레이어_1" data-name="레이어 1" xmlns="http://www.w3.org/2000/svg" viewBox="0 0 64 64"><defs><style>.cls-1{fill:#fff;}.cls-2{fill:#262933;}</style></defs><title>nimf-m17n-ks</title><path class="cls-1" d="M49.6,64H14.4A14.4,14.4,0,0,1,0,49.6V14.4A14.4,14.4,0,0,1,14.4,0H49.6A14.4,14.4,0,0,1,64,14.4V49.6A14.4,14.4,0,0,1,49.6,64Z"/><path class="cls-2" d="M22.86,31.06,34.08,47.13h-6L19.58,34.39l-3.72,3.77v9H11.1V10.08h4.76v22.3L27.32,20.33h6.13Z"/><path class="cls-2" d="M44.47,43.4a7.71,7.71,0,0,0,4.12-.93,2.87,2.87,0,0,0,1.47-2.54v-.4a3.76,3.76,0,0,0-.25-1.42,2.31,2.31,0,0,0-.93-1,7.88,7.88,0,0,0-1.86-.8,31.07,31.07,0,0,0-3.09-.76A27.06,27.06,0,0,1,40,34.44a10.93,10.93,0,0,1-2.89-1.55,6,6,0,0,1-1.79-2.18,6.91,6.91,0,0,1-.61-3v-.59a6.61,6.61,0,0,1,.59-2.7,6.25,6.25,0,0,1,1.81-2.32,9.5,9.5,0,0,1,3.11-1.62,14.53,14.53,0,0,1,4.48-.61,20.5,20.5,0,0,1,5.13.61,13.26,13.26,0,0,1,4.38,2l-2.11,3.58A10.73,10.73,0,0,0,49,24.49a12.72,12.72,0,0,0-3.89-.59,7.77,7.77,0,0,0-4.29.91,2.72,2.72,0,0,0-1.3,2.33v.44a2.52,2.52,0,0,0,1.32,2.33,15.61,15.61,0,0,0,4.46,1.34,29.07,29.07,0,0,1,4.27,1.08,10.26,10.26,0,0,1,3,1.59,6.16,6.16,0,0,1,1.76,2.28,7.87,7.87,0,0,1,.59,3.19V40A6.32,6.32,0,0,1,54.15,43a7,7,0,0,1-2,2.38,10.25,10.25,0,0,1-3.21,1.59,13.91,13.91,0,0,1-4.23.59,19.9,19.9,0,0,1-6.13-.88,15.14,15.14,0,0,1-4.65-2.35l2.2-3.73a19.85,19.85,0,0,0,3.87,2A12.43,12.43,0,0,0,44.47,43.4Z"/></svg>