<svg id="레이어_1" data-name="레이어 1" xmlns="http://www.w3.org/2000/svg" viewBox="0 0 64 64"><defs><style>.cls-1{fill:#fff;}.cls-2{fill:#262933;}</style></defs><title>nimf-m17n-si</title><path class="cls-1" d="M51.78,0H12.22A12.23,12.23,0,0,0,0,12.22V51.78A12.23,12.23,0,0,0,12.22,64H51.78A12.23,12.23,0,0,0,64,51.78V12.22A12.23,12.23,0,0,0,51.78,0Z"/><path class="cls-2" d="M26.83,43.4A7.69,7.69,0,0,0,31,42.47a2.87,2.87,0,0,0,1.47-2.54v-.4a3.57,3.57,0,0,0-.25-1.42,2.31,2.31,0,0,0-.93-1,7.88,7.88,0,0,0-1.86-.8,30.38,30.38,0,0,0-3.09-.76,27.43,27.43,0,0,1-3.92-1.08,11.09,11.09,0,0,1-2.89-1.55,6,6,0,0,1-1.79-2.18,6.91,6.91,0,0,1-.61-3v-.59a6.61,6.61,0,0,1,.59-2.7,6.25,6.25,0,0,1,1.81-2.32,9.5,9.5,0,0,1,3.11-1.62,14.55,14.55,0,0,1,4.49-.61,20.42,20.42,0,0,1,5.12.61,13.26,13.26,0,0,1,4.38,2l-2.1,3.58a10.92,10.92,0,0,0-3.17-1.57,12.72,12.72,0,0,0-3.89-.59,7.77,7.77,0,0,0-4.29.91,2.75,2.75,0,0,0-1.3,2.33v.44a2.51,2.51,0,0,0,1.33,2.33,15.4,15.4,0,0,0,4.46,1.34,29.25,29.25,0,0,1,4.26,1.08,10.26,10.26,0,0,1,3,1.59,6.16,6.16,0,0,1,1.76,2.28,7.87,7.87,0,0,1,.59,3.19V40A6.32,6.32,0,0,1,36.51,43a7.08,7.08,0,0,1-2,2.38,10.47,10.47,0,0,1-3.21,1.59,14,14,0,0,1-4.24.59,19.9,19.9,0,0,1-6.13-.88,15.14,15.14,0,0,1-4.65-2.35l2.2-3.73a19.85,19.85,0,0,0,3.87,2A12.46,12.46,0,0,0,26.83,43.4Z"/><path class="cls-2" d="M45.5,10.72v5.2h-5v-5.2Zm-.15,9.61v26.8H40.6V20.33Z"/></svg>