<svg id="레이어_1" data-name="레이어 1" xmlns="http://www.w3.org/2000/svg" viewBox="0 0 64 64"><defs><style>.cls-1{fill:#fff;}.cls-2{fill:#262933;}</style></defs><title>nimf-m17n-km</title><rect class="cls-1" width="64" height="64" rx="12.22" ry="12.22"/><path class="cls-2" d="M15.85,31.06l9,16.07H20L13.22,34.39l-3,3.77v9H6.44V10.08h3.8v22.3l9.18-12.05h4.9Z"/><path class="cls-2" d="M57.87,47.13h-3.8V31.06q0-6.91-4-6.91a4.64,4.64,0,0,0-3.37,1.49,5.92,5.92,0,0,0-1.16,2,8,8,0,0,0-.45,2.82V47.13h-3.8V31.06c0-4.61-1.34-6.91-4-6.91a4.85,4.85,0,0,0-1.78.34,4.41,4.41,0,0,0-1.59,1.08,5.65,5.65,0,0,0-1.15,1.89,7.4,7.4,0,0,0-.45,2.71v17H28.43V20.33H32.2V24h0a6.61,6.61,0,0,1,2-2.94A5.63,5.63,0,0,1,38,19.84,6.18,6.18,0,0,1,41.7,21a7,7,0,0,1,2.41,3.3,10.15,10.15,0,0,1,2.57-3.21,6.34,6.34,0,0,1,4.1-1.24A6.13,6.13,0,0,1,56,22.36c1.26,1.68,1.88,4.07,1.88,7.18Z"/></svg>