<svg id="레이어_1" data-name="레이어 1" xmlns="http://www.w3.org/2000/svg" viewBox="0 0 64 64"><defs><style>.cls-1{fill:#fff;}.cls-2{fill:#262933;}</style></defs><title>nimf-m17n-iu</title><path class="cls-1" d="M51.78,0H12.22A12.23,12.23,0,0,0,0,12.22V51.78A12.23,12.23,0,0,0,12.22,64H51.78A12.23,12.23,0,0,0,64,51.78V12.22A12.23,12.23,0,0,0,51.78,0Z"/><path class="cls-2" d="M21.17,10.72v5.2h-5v-5.2ZM21,20.33v26.8H16.27V20.33Z"/><path class="cls-2" d="M26,20.33h4.76V37c0,2.25.45,3.88,1.37,4.9a5.61,5.61,0,0,0,4.36,1.51,7,7,0,0,0,2.4-.41A6.89,6.89,0,0,0,41,41.76a6.09,6.09,0,0,0,1.55-2,6.42,6.42,0,0,0,.58-2.79V20.33h4.76v26.8H43.27V43.75h-.05A8.33,8.33,0,0,1,40,46.61a10.33,10.33,0,0,1-4.76,1A11.13,11.13,0,0,1,31.63,47a8.27,8.27,0,0,1-2.94-1.76,8.41,8.41,0,0,1-2-3A11.09,11.09,0,0,1,26,38.06Z"/></svg>