<svg id="레이어_1" data-name="레이어 1" xmlns="http://www.w3.org/2000/svg" viewBox="0 0 64 64"><defs><style>.cls-1{fill:#fff;}.cls-2{fill:#262933;}</style></defs><title>nimf-m17n-dv</title><rect class="cls-1" width="64" height="64" rx="12.22" ry="12.22"/><path class="cls-2" d="M27.56,43.8a6.23,6.23,0,0,1-3.21,2.89,12.32,12.32,0,0,1-4.58.83q-5.1,0-7.77-3T9.33,36.1V31.35a13.94,13.94,0,0,1,.79-4.85,10.26,10.26,0,0,1,2.18-3.63,9.34,9.34,0,0,1,3.35-2.25A11.61,11.61,0,0,1,20,19.84a9.62,9.62,0,0,1,4.87,1.05,8.18,8.18,0,0,1,2.62,2.23v-13h4.76V47.13H27.66V43.8Zm0-14.12A4.57,4.57,0,0,0,27,27.63a5.7,5.7,0,0,0-1.47-1.84,7.69,7.69,0,0,0-2.26-1.3A8,8,0,0,0,20.46,24a5.71,5.71,0,0,0-4.73,2.11A9.22,9.22,0,0,0,14,32v3.28a9.19,9.19,0,0,0,1.71,5.93,5.76,5.76,0,0,0,4.71,2.11,7.92,7.92,0,0,0,2.74-.47,6.57,6.57,0,0,0,2.23-1.35A6.46,6.46,0,0,0,27,39.41a6.86,6.86,0,0,0,.56-2.82Z"/><path class="cls-2" d="M46.52,42.67l7-22.34h5l-9.07,26.8H43.39l-9.16-26.8h5.14l7.06,22.34Z"/></svg>