<svg id="레이어_1" data-name="레이어 1" xmlns="http://www.w3.org/2000/svg" viewBox="0 0 64 64"><defs><style>.cls-1{fill:#fff;}.cls-2{fill:#262933;}</style></defs><title>nimf-m17n-hr</title><path class="cls-1" d="M51.78,0H12.22A12.23,12.23,0,0,0,0,12.22V51.78A12.23,12.23,0,0,0,12.22,64H51.78A12.23,12.23,0,0,0,64,51.78V12.22A12.23,12.23,0,0,0,51.78,0Z"/><path class="cls-2" d="M34.25,47.13H29.5V30.47q0-3.39-1.42-4.9a5.79,5.79,0,0,0-4.41-1.52,7.31,7.31,0,0,0-2.43.42,6.55,6.55,0,0,0-2.15,1.22,6.39,6.39,0,0,0-1.57,2,6.17,6.17,0,0,0-.61,2.8V47.13H12.15V10.08h4.76V23.56a7.91,7.91,0,0,1,3.21-2.77,10.76,10.76,0,0,1,4.73-.95,11.29,11.29,0,0,1,3.67.58,8.42,8.42,0,0,1,3,1.77,8.13,8.13,0,0,1,2,3,11.15,11.15,0,0,1,.73,4.21Z"/><path class="cls-2" d="M53.66,25a8.55,8.55,0,0,0-3.28-.64,6.4,6.4,0,0,0-2.53.52,6,6,0,0,0-2.08,1.47,7.29,7.29,0,0,0-1.42,2.28,7.55,7.55,0,0,0-.54,2.89V47.13H39.06V20.33h4.6v4.26h.05a9.4,9.4,0,0,1,3.06-3.51,8.62,8.62,0,0,1,4.83-1.24,11.49,11.49,0,0,1,3.48.54Z"/></svg>