<svg id="레이어_1" data-name="레이어 1" xmlns="http://www.w3.org/2000/svg" viewBox="0 0 64 64"><defs><style>.cls-1{fill:#fff;}.cls-2{fill:#262933;}</style></defs><title>nimf-m17n-ar</title><path class="cls-1" d="M49.6,64H14.4A14.4,14.4,0,0,1,0,49.6V14.4A14.4,14.4,0,0,1,14.4,0H49.6A14.4,14.4,0,0,1,64,14.4V49.6A14.4,14.4,0,0,1,49.6,64Z"/><path class="cls-2" d="M20.75,47.52a9.66,9.66,0,0,1-6.44-2A6.87,6.87,0,0,1,11.93,40V38.65a7.28,7.28,0,0,1,2.31-5.58c1.53-1.44,4-2.16,7.45-2.16H28.5V29.34a5.46,5.46,0,0,0-1.3-4A5.82,5.82,0,0,0,23,24.05a10.27,10.27,0,0,0-4.09.74,21.52,21.52,0,0,0-3.6,2l-2.35-3.53a22.19,22.19,0,0,1,4.4-2.38,14.94,14.94,0,0,1,5.69-1,14.11,14.11,0,0,1,4.12.56,9.11,9.11,0,0,1,3.2,1.67,7.73,7.73,0,0,1,2.11,2.69,8.2,8.2,0,0,1,.76,3.6V47.13H28.64V43.9h-.05a5.26,5.26,0,0,1-1.05,1.34A7.86,7.86,0,0,1,26.1,46.3a10.06,10.06,0,0,1-2.33.9A12.48,12.48,0,0,1,20.75,47.52ZM28.5,34.93H21.78a5.92,5.92,0,0,0-4,1.08,3.81,3.81,0,0,0-1.2,3v.68A3.12,3.12,0,0,0,18,42.52a5.93,5.93,0,0,0,3.28.88A10.05,10.05,0,0,0,24.31,43a7.93,7.93,0,0,0,2.37-1.25,4.2,4.2,0,0,0,1.4-1.69,6.22,6.22,0,0,0,.42-2.48Z"/><path class="cls-2" d="M52.51,25a8.55,8.55,0,0,0-3.29-.64,6.39,6.39,0,0,0-2.52.52,6,6,0,0,0-2.08,1.47,7.33,7.33,0,0,0-1.42,2.28,7.55,7.55,0,0,0-.54,2.89V47.13H37.9V20.33h4.61v4.26h.05a9.12,9.12,0,0,1,3.06-3.5,8.54,8.54,0,0,1,4.83-1.25,11.59,11.59,0,0,1,3.48.54Z"/></svg>