<svg id="레이어_1" data-name="레이어 1" xmlns="http://www.w3.org/2000/svg" viewBox="0 0 64 64"><defs><style>.cls-1{fill:#fff;}.cls-2{fill:#262933;}</style></defs><title>nimf-m17n-sa</title><rect class="cls-1" width="64" height="64" rx="12.22" ry="12.22"/><path class="cls-2" d="M19.65,43.4a7.69,7.69,0,0,0,4.12-.93,2.87,2.87,0,0,0,1.47-2.54v-.4A3.57,3.57,0,0,0,25,38.11a2.31,2.31,0,0,0-.93-1,7.88,7.88,0,0,0-1.86-.8,30.38,30.38,0,0,0-3.09-.76,27.43,27.43,0,0,1-3.92-1.08,11.09,11.09,0,0,1-2.89-1.55,6,6,0,0,1-1.79-2.18,6.91,6.91,0,0,1-.61-3v-.59a6.61,6.61,0,0,1,.59-2.7,6.35,6.35,0,0,1,1.81-2.32,9.6,9.6,0,0,1,3.11-1.62,14.6,14.6,0,0,1,4.49-.61,20.42,20.42,0,0,1,5.12.61,13.26,13.26,0,0,1,4.38,2l-2.1,3.58a11,11,0,0,0-3.16-1.57,12.83,12.83,0,0,0-3.9-.59,7.77,7.77,0,0,0-4.29.91,2.75,2.75,0,0,0-1.3,2.33v.44A2.53,2.53,0,0,0,16,29.91a15.51,15.51,0,0,0,4.46,1.34,29.25,29.25,0,0,1,4.26,1.08,10.26,10.26,0,0,1,3,1.59,6.16,6.16,0,0,1,1.76,2.28A7.87,7.87,0,0,1,30,39.39V40A6.32,6.32,0,0,1,29.33,43a7,7,0,0,1-2,2.38,10.47,10.47,0,0,1-3.21,1.59,14,14,0,0,1-4.24.59,19.9,19.9,0,0,1-6.13-.88,15.14,15.14,0,0,1-4.65-2.35l2.2-3.73a19.85,19.85,0,0,0,3.87,2A12.46,12.46,0,0,0,19.65,43.4Z"/><path class="cls-2" d="M40.72,47.52a9.64,9.64,0,0,1-6.44-2A6.84,6.84,0,0,1,31.9,40V38.65a7.31,7.31,0,0,1,2.3-5.58q2.31-2.16,7.45-2.16h6.81V29.34a5.45,5.45,0,0,0-1.29-4,5.82,5.82,0,0,0-4.24-1.3,10.32,10.32,0,0,0-4.1.74,21.52,21.52,0,0,0-3.6,2l-2.35-3.53a22.56,22.56,0,0,1,4.41-2.38,14.9,14.9,0,0,1,5.69-1,14,14,0,0,1,4.11.56,9.25,9.25,0,0,1,3.21,1.67,7.73,7.73,0,0,1,2.11,2.69,8.34,8.34,0,0,1,.76,3.6V47.13H48.61V43.89h0a5.13,5.13,0,0,1-1.05,1.35,7.93,7.93,0,0,1-1.45,1.06,10,10,0,0,1-2.32.9A12.54,12.54,0,0,1,40.72,47.52Zm7.74-12.59H41.75a5.92,5.92,0,0,0-4,1.08,3.79,3.79,0,0,0-1.2,3v.68a3.11,3.11,0,0,0,1.37,2.84,5.91,5.91,0,0,0,3.28.88A9.94,9.94,0,0,0,44.27,43a7.86,7.86,0,0,0,2.38-1.25,4.28,4.28,0,0,0,1.4-1.69,6.41,6.41,0,0,0,.41-2.48Z"/></svg>