<svg id="레이어_1" data-name="레이어 1" xmlns="http://www.w3.org/2000/svg" viewBox="0 0 64 64"><defs><style>.cls-1{fill:#fff;}.cls-2{fill:#262933;}</style></defs><title>nimf-m17n-ps</title><path class="cls-1" d="M51.78,0H12.22A12.23,12.23,0,0,0,0,12.22V51.78A12.23,12.23,0,0,0,12.22,64H51.78A12.23,12.23,0,0,0,64,51.78V12.22A12.23,12.23,0,0,0,51.78,0Z"/><path class="cls-2" d="M14.85,23.66a6.67,6.67,0,0,1,3.31-2.94,11.68,11.68,0,0,1,4.53-.88q5.1,0,7.77,3t2.67,8.38V36a14,14,0,0,1-.79,4.92,10.3,10.3,0,0,1-2.18,3.6,9,9,0,0,1-3.38,2.23,12.06,12.06,0,0,1-4.38.76,9.17,9.17,0,0,1-4.78-1.08A8.6,8.6,0,0,1,15,44.19V57.61H10.24V20.33h4.61ZM15,37.57a4.79,4.79,0,0,0,.51,2.09,5.93,5.93,0,0,0,1.47,1.86,8.07,8.07,0,0,0,2.23,1.32,7.6,7.6,0,0,0,2.84.52,5.72,5.72,0,0,0,4.73-2.11,9.24,9.24,0,0,0,1.69-5.93V32a9.17,9.17,0,0,0-1.71-5.93A5.74,5.74,0,0,0,22,24a7.7,7.7,0,0,0-2.74.49A7,7,0,0,0,17,25.86,6.57,6.57,0,0,0,15.51,28,6.92,6.92,0,0,0,15,30.81Z"/><path class="cls-2" d="M45.33,43.4a7.67,7.67,0,0,0,4.11-.93,2.87,2.87,0,0,0,1.47-2.54v-.4a3.77,3.77,0,0,0-.24-1.42,2.37,2.37,0,0,0-.93-1,7.88,7.88,0,0,0-1.86-.8,31.79,31.79,0,0,0-3.09-.76,27.06,27.06,0,0,1-3.92-1.08A10.93,10.93,0,0,1,38,32.89a6,6,0,0,1-1.79-2.18,6.91,6.91,0,0,1-.61-3v-.59a6.45,6.45,0,0,1,.59-2.7A6.25,6.25,0,0,1,38,22.07a9.4,9.4,0,0,1,3.11-1.62,14.53,14.53,0,0,1,4.48-.61,20.36,20.36,0,0,1,5.12.61,13.22,13.22,0,0,1,4.39,2L53,26.06a10.73,10.73,0,0,0-3.16-1.57,12.72,12.72,0,0,0-3.89-.59,7.72,7.72,0,0,0-4.29.91,2.72,2.72,0,0,0-1.3,2.33v.44a2.52,2.52,0,0,0,1.32,2.33,15.61,15.61,0,0,0,4.46,1.34,29.07,29.07,0,0,1,4.27,1.08,10.2,10.2,0,0,1,3,1.59,6.08,6.08,0,0,1,1.77,2.28,7.87,7.87,0,0,1,.59,3.19V40A6.32,6.32,0,0,1,55,43a7.11,7.11,0,0,1-2,2.38,10.25,10.25,0,0,1-3.21,1.59,14,14,0,0,1-4.24.59,19.88,19.88,0,0,1-6.12-.88,15.32,15.32,0,0,1-4.66-2.35L37,40.56a19.85,19.85,0,0,0,3.87,2A12.39,12.39,0,0,0,45.33,43.4Z"/></svg>