<svg id="레이어_1" data-name="레이어 1" xmlns="http://www.w3.org/2000/svg" viewBox="0 0 64 64"><defs><style>.cls-1{fill:#fff;}.cls-2{fill:#262933;}</style></defs><title>nimf-m17n-bn</title><path class="cls-1" d="M49.6,64H14.4A14.4,14.4,0,0,1,0,49.6V14.4A14.4,14.4,0,0,1,14.4,0H49.6A14.4,14.4,0,0,1,64,14.4V49.6A14.4,14.4,0,0,1,49.6,64Z"/><path class="cls-2" d="M12.52,23.41a6.7,6.7,0,0,1,3.36-2.79,12.15,12.15,0,0,1,4.29-.78c3.39,0,6,1,7.79,3s2.69,4.79,2.69,8.45V36a14.1,14.1,0,0,1-.78,4.87,10.3,10.3,0,0,1-2.18,3.6,9.44,9.44,0,0,1-3.36,2.26,11.56,11.56,0,0,1-4.31.78,9.64,9.64,0,0,1-4.85-1.05A7.51,7.51,0,0,1,12.47,44h-.09v3.14H7.77V10.08h4.75Zm0,14.16A4.67,4.67,0,0,0,13,39.66a5.66,5.66,0,0,0,1.47,1.86,7.93,7.93,0,0,0,2.23,1.32,7.56,7.56,0,0,0,2.84.52,5.75,5.75,0,0,0,4.73-2.11A9.3,9.3,0,0,0,26,35.32V32a9.11,9.11,0,0,0-1.72-5.93A5.72,5.72,0,0,0,19.53,24a7.66,7.66,0,0,0-2.74.49,6.84,6.84,0,0,0-2.23,1.37A6.42,6.42,0,0,0,13,28a6.77,6.77,0,0,0-.57,2.82Z"/><path class="cls-2" d="M56.62,47.13H51.87V30.47c0-2.26-.48-3.89-1.42-4.9A5.79,5.79,0,0,0,46,24.05a7.31,7.31,0,0,0-2.43.42,6.4,6.4,0,0,0-3.72,3.25,6.17,6.17,0,0,0-.61,2.8V47.13H34.52V20.33h4.61v3.38h0a8.14,8.14,0,0,1,3.23-2.87,10.63,10.63,0,0,1,4.8-1,11.31,11.31,0,0,1,3.68.58,8.42,8.42,0,0,1,3,1.77,8.13,8.13,0,0,1,2,3,11.15,11.15,0,0,1,.73,4.21Z"/></svg>