<svg id="레이어_1" data-name="레이어 1" xmlns="http://www.w3.org/2000/svg" viewBox="0 0 64 64"><defs><style>.cls-1{fill:#fff;}.cls-2{fill:#262933;}</style></defs><title>nimf-m17n-sd</title><rect class="cls-1" width="64" height="64" rx="12.22" ry="12.22"/><path class="cls-2" d="M19.57,43.4a7.69,7.69,0,0,0,4.12-.93,2.87,2.87,0,0,0,1.47-2.54v-.4a3.77,3.77,0,0,0-.24-1.42,2.4,2.4,0,0,0-.94-1,7.53,7.53,0,0,0-1.86-.8A30.78,30.78,0,0,0,19,35.52a27.06,27.06,0,0,1-3.92-1.08,11,11,0,0,1-2.9-1.55,5.92,5.92,0,0,1-1.78-2.18,6.91,6.91,0,0,1-.62-3v-.59a6.61,6.61,0,0,1,.59-2.7,6.35,6.35,0,0,1,1.81-2.32,9.55,9.55,0,0,1,3.12-1.62,14.49,14.49,0,0,1,4.48-.61,20.36,20.36,0,0,1,5.12.61,13.31,13.31,0,0,1,4.39,2l-2.11,3.58a10.86,10.86,0,0,0-3.16-1.57,12.83,12.83,0,0,0-3.9-.59,7.71,7.71,0,0,0-4.28.91,2.72,2.72,0,0,0-1.3,2.33v.44a2.52,2.52,0,0,0,1.32,2.33,15.51,15.51,0,0,0,4.46,1.34,29.25,29.25,0,0,1,4.26,1.08,10.13,10.13,0,0,1,3,1.59,6.29,6.29,0,0,1,1.77,2.28A7.87,7.87,0,0,1,30,39.39V40A6.2,6.2,0,0,1,29.25,43a7,7,0,0,1-2,2.38A10.25,10.25,0,0,1,24,46.93a14,14,0,0,1-4.24.59,19.84,19.84,0,0,1-6.12-.88A15.2,15.2,0,0,1,9,44.29l2.21-3.73a19.3,19.3,0,0,0,3.87,2A12.37,12.37,0,0,0,19.57,43.4Z"/><path class="cls-2" d="M50.1,43.8a6.23,6.23,0,0,1-3.21,2.89,12.32,12.32,0,0,1-4.58.83q-5.1,0-7.77-3T31.87,36.1V31.35a13.94,13.94,0,0,1,.79-4.85,10.26,10.26,0,0,1,2.18-3.63,9.34,9.34,0,0,1,3.35-2.25,11.61,11.61,0,0,1,4.32-.78,9.62,9.62,0,0,1,4.87,1.05A8.18,8.18,0,0,1,50,23.12v-13h4.76V47.13H50.2V43.8Zm-.05-14.12a4.57,4.57,0,0,0-.51-2.05,6,6,0,0,0-1.47-1.84,7.69,7.69,0,0,0-2.26-1.3A8,8,0,0,0,43,24a5.7,5.7,0,0,0-4.73,2.11A9.22,9.22,0,0,0,36.58,32v3.28a9.19,9.19,0,0,0,1.71,5.93A5.75,5.75,0,0,0,43,43.36a7.92,7.92,0,0,0,2.74-.47A6.57,6.57,0,0,0,48,41.54a6.46,6.46,0,0,0,1.52-2.13,6.86,6.86,0,0,0,.56-2.82Z"/></svg>