<svg id="레이어_1" data-name="레이어 1" xmlns="http://www.w3.org/2000/svg" viewBox="0 0 64 64"><defs><style>.cls-1{fill:#fff;}.cls-2{fill:#262933;}</style></defs><title>nimf-m17n-ru</title><path class="cls-1" d="M49.6,64H14.4A14.4,14.4,0,0,1,0,49.6V14.4A14.4,14.4,0,0,1,14.4,0H49.6A14.4,14.4,0,0,1,64,14.4V49.6A14.4,14.4,0,0,1,49.6,64Z"/><path class="cls-2" d="M26.86,25a8.55,8.55,0,0,0-3.29-.64,6.39,6.39,0,0,0-2.52.52A5.88,5.88,0,0,0,19,26.33a7.31,7.31,0,0,0-1.43,2.28A7.74,7.74,0,0,0,17,31.5V47.13H12.25V20.33h4.61v4.26h.05A9.23,9.23,0,0,1,20,21.08a8.62,8.62,0,0,1,4.83-1.24,11.59,11.59,0,0,1,3.48.54Z"/><path class="cls-2" d="M29.84,20.33H34.6V37c0,2.25.45,3.88,1.37,4.9a5.61,5.61,0,0,0,4.36,1.51,7,7,0,0,0,2.4-.41,6.77,6.77,0,0,0,2.13-1.23,6.09,6.09,0,0,0,1.55-2A6.42,6.42,0,0,0,47,36.94V20.33h4.76v26.8H47.14V43.75h0a8.33,8.33,0,0,1-3.18,2.86,10.33,10.33,0,0,1-4.76,1A11.13,11.13,0,0,1,35.5,47a8.27,8.27,0,0,1-2.94-1.76,8.41,8.41,0,0,1-2-3,11.09,11.09,0,0,1-.74-4.24Z"/></svg>