<svg id="레이어_1" data-name="레이어 1" xmlns="http://www.w3.org/2000/svg" viewBox="0 0 64 64"><defs><style>.cls-1{fill:#fff;}.cls-2{fill:#262933;}</style></defs><title>nimf-m17n-as</title><path class="cls-1" d="M49.6,64H14.4A14.4,14.4,0,0,1,0,49.6V14.4A14.4,14.4,0,0,1,14.4,0H49.6A14.4,14.4,0,0,1,64,14.4V49.6A14.4,14.4,0,0,1,49.6,64Z"/><path class="cls-2" d="M18.77,47.52a9.64,9.64,0,0,1-6.44-2A6.84,6.84,0,0,1,10,40V38.65a7.31,7.31,0,0,1,2.3-5.58q2.31-2.16,7.45-2.16h6.81V29.34a5.41,5.41,0,0,0-1.3-4c-.86-.87-2.27-1.3-4.23-1.3a10.32,10.32,0,0,0-4.1.74,21.52,21.52,0,0,0-3.6,2l-2.35-3.53a22.56,22.56,0,0,1,4.41-2.38,14.89,14.89,0,0,1,5.68-1,14,14,0,0,1,4.12.56,9.25,9.25,0,0,1,3.21,1.67,7.73,7.73,0,0,1,2.11,2.69,8.34,8.34,0,0,1,.76,3.6V47.13H26.66V43.9h-.05a5.26,5.26,0,0,1-1.05,1.34,7.93,7.93,0,0,1-1.45,1.06,9.89,9.89,0,0,1-2.33.9A12.39,12.39,0,0,1,18.77,47.52Zm7.74-12.59H19.8a5.92,5.92,0,0,0-4,1.08,3.77,3.77,0,0,0-1.2,3v.68A3.1,3.1,0,0,0,16,42.52a5.91,5.91,0,0,0,3.28.88A9.94,9.94,0,0,0,22.32,43a7.86,7.86,0,0,0,2.38-1.25,4.28,4.28,0,0,0,1.4-1.69,6.41,6.41,0,0,0,.41-2.48Z"/><path class="cls-2" d="M44.25,43.4a7.71,7.71,0,0,0,4.12-.93,2.86,2.86,0,0,0,1.46-2.54v-.4a3.77,3.77,0,0,0-.24-1.42,2.31,2.31,0,0,0-.93-1,7.88,7.88,0,0,0-1.86-.8,31.79,31.79,0,0,0-3.09-.76,27.06,27.06,0,0,1-3.92-1.08,10.93,10.93,0,0,1-2.89-1.55,6,6,0,0,1-1.79-2.18,6.91,6.91,0,0,1-.61-3v-.59a6.45,6.45,0,0,1,.59-2.7,6.25,6.25,0,0,1,1.81-2.32A9.5,9.5,0,0,1,40,20.45a14.53,14.53,0,0,1,4.48-.61,20.5,20.5,0,0,1,5.13.61,13.26,13.26,0,0,1,4.38,2l-2.11,3.58a10.73,10.73,0,0,0-3.16-1.57,12.72,12.72,0,0,0-3.89-.59,7.75,7.75,0,0,0-4.29.91,2.72,2.72,0,0,0-1.3,2.33v.44a2.52,2.52,0,0,0,1.32,2.33A15.61,15.61,0,0,0,45,31.25a29.07,29.07,0,0,1,4.27,1.08,10.39,10.39,0,0,1,3,1.59,6.16,6.16,0,0,1,1.76,2.28,7.87,7.87,0,0,1,.59,3.19V40A6.32,6.32,0,0,1,53.93,43a7,7,0,0,1-2,2.38,10.25,10.25,0,0,1-3.21,1.59,13.91,13.91,0,0,1-4.23.59,19.9,19.9,0,0,1-6.13-.88,15.14,15.14,0,0,1-4.65-2.35l2.2-3.73a19.85,19.85,0,0,0,3.87,2A12.22,12.22,0,0,0,44.25,43.4Z"/></svg>