<svg id="레이어_1" data-name="레이어 1" xmlns="http://www.w3.org/2000/svg" viewBox="0 0 64 64"><defs><style>.cls-1{fill:#fff;}.cls-2{fill:#262933;}</style></defs><title>nimf-m17n-nsk</title><path class="cls-1" d="M51.78,0H12.22A12.23,12.23,0,0,0,0,12.22V51.78A12.23,12.23,0,0,0,12.22,64H51.78A12.23,12.23,0,0,0,64,51.78V12.22A12.23,12.23,0,0,0,51.78,0Z"/><path class="cls-2" d="M22.81,47.13H19.25V30.47a8.7,8.7,0,0,0-1.07-4.9,3.76,3.76,0,0,0-3.3-1.52,4.24,4.24,0,0,0-1.82.42,4.81,4.81,0,0,0-1.62,1.22,6.54,6.54,0,0,0-1.18,2,8.1,8.1,0,0,0-.46,2.8V47.13H6.24V20.33H9.69v3.38h0a7.12,7.12,0,0,1,2.43-2.87,6.31,6.31,0,0,1,3.6-1,6.52,6.52,0,0,1,2.75.58,6.14,6.14,0,0,1,2.24,1.77,8.65,8.65,0,0,1,1.51,3,14.42,14.42,0,0,1,.55,4.21Z"/><path class="cls-2" d="M32.66,43.4a4.67,4.67,0,0,0,3.09-.93,3.17,3.17,0,0,0,1.1-2.54v-.4a4.91,4.91,0,0,0-.18-1.42,2.35,2.35,0,0,0-.7-1,5.17,5.17,0,0,0-1.4-.8,18.94,18.94,0,0,0-2.31-.76,16.45,16.45,0,0,1-2.94-1.08,7.86,7.86,0,0,1-2.17-1.55,5.84,5.84,0,0,1-1.34-2.18,8.86,8.86,0,0,1-.46-3v-.59a8.58,8.58,0,0,1,.44-2.7,6.38,6.38,0,0,1,1.36-2.32,6.75,6.75,0,0,1,2.33-1.62,8.45,8.45,0,0,1,3.37-.61,11.71,11.71,0,0,1,3.84.61,9.17,9.17,0,0,1,3.29,2L38.4,26.06A7.7,7.7,0,0,0,36,24.49a7.36,7.36,0,0,0-2.92-.59,4.66,4.66,0,0,0-3.21.91,3,3,0,0,0-1,2.33v.44a2.74,2.74,0,0,0,1,2.33,9.6,9.6,0,0,0,3.34,1.34,17.85,17.85,0,0,1,3.2,1.08,7.4,7.4,0,0,1,2.24,1.59A6.16,6.16,0,0,1,40,36.2a10,10,0,0,1,.44,3.19V40A8.12,8.12,0,0,1,39.92,43a6.93,6.93,0,0,1-1.52,2.38A7.34,7.34,0,0,1,36,46.93a8.12,8.12,0,0,1-3.18.59,11.49,11.49,0,0,1-4.59-.88,10.72,10.72,0,0,1-3.5-2.35l1.66-3.73a13.85,13.85,0,0,0,2.9,2A7.29,7.29,0,0,0,32.66,43.4Z"/><path class="cls-2" d="M51.7,31.06l8.41,16.07H55.63L49.24,34.39l-2.8,3.77v9H42.88V10.08h3.56v22.3L55,20.33h4.6Z"/></svg>