<svg id="레이어_1" data-name="레이어 1" xmlns="http://www.w3.org/2000/svg" viewBox="0 0 64 64"><defs><style>.cls-1{fill:#fff;}.cls-2{fill:#262933;}</style></defs><title>nimf-m17n-mr</title><path class="cls-1" d="M49.6,64H14.4A14.4,14.4,0,0,1,0,49.6V14.4A14.4,14.4,0,0,1,14.4,0H49.6A14.4,14.4,0,0,1,64,14.4V49.6A14.4,14.4,0,0,1,49.6,64Z"/><path class="cls-2" d="M40.64,47.13H36.37V31.06q0-6.91-4.55-6.91a5.61,5.61,0,0,0-2,.37A5.19,5.19,0,0,0,28,25.64a5.84,5.84,0,0,0-1.3,2,7.17,7.17,0,0,0-.51,2.82V47.13H22V31.06q0-6.91-4.55-6.91a6,6,0,0,0-2,.34,5.08,5.08,0,0,0-1.79,1.08,5.61,5.61,0,0,0-1.3,1.89,6.62,6.62,0,0,0-.51,2.71v17H7.52V20.33h4.24V24h0A6.68,6.68,0,0,1,14.12,21a6.83,6.83,0,0,1,4.12-1.17A7.57,7.57,0,0,1,22.45,21a7.12,7.12,0,0,1,2.71,3.3,10.52,10.52,0,0,1,2.89-3.21,7.77,7.77,0,0,1,4.61-1.24,7.25,7.25,0,0,1,5.87,2.52q2.11,2.52,2.11,7.18Z"/><path class="cls-2" d="M58.11,25a6.91,6.91,0,0,0-1.35-.46,6.67,6.67,0,0,0-1.61-.18,5.27,5.27,0,0,0-2.27.52A5.4,5.4,0,0,0,51,26.33a7.39,7.39,0,0,0-1.28,2.28,8.16,8.16,0,0,0-.49,2.89V47.13H45V20.33h4.15v4.26h0a9.13,9.13,0,0,1,2.76-3.51,7.15,7.15,0,0,1,4.34-1.24,9.47,9.47,0,0,1,3.14.54Z"/></svg>