<svg id="레이어_1" data-name="레이어 1" xmlns="http://www.w3.org/2000/svg" viewBox="0 0 64 64"><defs><style>.cls-1{fill:#fff;}.cls-2{fill:#262933;}</style></defs><title>nimf-m17n-or</title><rect class="cls-1" width="64" height="64" rx="12.22" ry="12.22"/><path class="cls-2" d="M23,19.84c3.69,0,6.61,1.06,8.74,3.18S35,28.15,35,32v3.28q0,5.84-3.21,9c-2.13,2.12-5.05,3.18-8.74,3.18s-6.61-1.06-8.75-3.18-3.21-5.13-3.21-9V32q0-5.88,3.21-9T23,19.84Zm0,23.52a6.83,6.83,0,0,0,5.17-2.09q2-2.09,2-6.34v-2.5q0-4.26-2-6.35A6.86,6.86,0,0,0,23,24a6.83,6.83,0,0,0-5.17,2.08c-1.32,1.39-2,3.51-2,6.35v2.5c0,2.84.67,5,2,6.34A6.8,6.8,0,0,0,23,43.36Z"/><path class="cls-2" d="M53.39,25a8.55,8.55,0,0,0-3.28-.64,6.4,6.4,0,0,0-2.53.52,6,6,0,0,0-2.08,1.47,7.29,7.29,0,0,0-1.42,2.28,7.55,7.55,0,0,0-.54,2.89V47.13H38.79V20.33h4.6v4.26h0a9.4,9.4,0,0,1,3.06-3.51,8.62,8.62,0,0,1,4.83-1.24,11.49,11.49,0,0,1,3.48.54Z"/></svg>