<svg id="레이어_1" data-name="레이어 1" xmlns="http://www.w3.org/2000/svg" viewBox="0 0 64 64"><defs><style>.cls-1{fill:#fff;}.cls-2{fill:#262933;}</style></defs><title>nimf-m17n-eo</title><path class="cls-1" d="M49.6,64H14.4A14.4,14.4,0,0,1,0,49.6V14.4A14.4,14.4,0,0,1,14.4,0H49.6A14.4,14.4,0,0,1,64,14.4V49.6A14.4,14.4,0,0,1,49.6,64Z"/><path class="cls-2" d="M29.6,44.58a17.3,17.3,0,0,1-4.22,2.08,18.74,18.74,0,0,1-6.12.86,14.64,14.64,0,0,1-4.63-.71,10,10,0,0,1-3.72-2.2,10.09,10.09,0,0,1-2.5-3.85,15.41,15.41,0,0,1-.91-5.59v-3a15.34,15.34,0,0,1,.86-5.34A10.55,10.55,0,0,1,10.76,23a10,10,0,0,1,3.65-2.33,13.14,13.14,0,0,1,4.6-.78A10.87,10.87,0,0,1,27.2,23c2,2.09,3,5.05,3,8.87v3.58h-18v.19a7.81,7.81,0,0,0,2,5.81,7.16,7.16,0,0,0,5.25,2A14.4,14.4,0,0,0,24,42.77,15.43,15.43,0,0,0,27.59,41ZM19,23.9a6.92,6.92,0,0,0-2.71.52,6.3,6.3,0,0,0-2.16,1.42A6.42,6.42,0,0,0,12.72,28a7.68,7.68,0,0,0-.52,2.82v.69H25.63v-.88a6.84,6.84,0,0,0-1.76-4.93A6.45,6.45,0,0,0,19,23.9Z"/><path class="cls-2" d="M44.54,19.84q5.53,0,8.75,3.18t3.21,9v3.28q0,5.84-3.21,9t-8.75,3.18q-5.53,0-8.74-3.18t-3.21-9V32q0-5.88,3.21-9T44.54,19.84Zm0,23.52a6.8,6.8,0,0,0,5.17-2.09q2-2.09,2-6.34v-2.5q0-4.26-2-6.35A6.83,6.83,0,0,0,44.54,24a6.86,6.86,0,0,0-5.17,2.08q-2,2.09-2,6.35v2.5q0,4.26,2,6.34A6.83,6.83,0,0,0,44.54,43.36Z"/></svg>