<svg id="레이어_1" data-name="레이어 1" xmlns="http://www.w3.org/2000/svg" viewBox="0 0 64 64"><defs><style>.cls-1{fill:#fff;}.cls-2{fill:#262933;}</style></defs><title>nimf-m17n-ui</title><path class="cls-1" d="M49.6,64H14.4A14.4,14.4,0,0,1,0,49.6V14.4A14.4,14.4,0,0,1,14.4,0H49.6A14.4,14.4,0,0,1,64,14.4V49.6A14.4,14.4,0,0,1,49.6,64Z"/><path class="cls-2" d="M15.73,20.33h4.76V37c0,2.25.45,3.88,1.37,4.9a5.61,5.61,0,0,0,4.36,1.51,7.08,7.08,0,0,0,2.4-.41,6.89,6.89,0,0,0,2.13-1.23,5.94,5.94,0,0,0,1.54-2,6.28,6.28,0,0,0,.59-2.79V20.33h4.76v26.8H33V43.75H33a8.33,8.33,0,0,1-3.18,2.86,10.36,10.36,0,0,1-4.76,1A11.13,11.13,0,0,1,21.39,47a8.18,8.18,0,0,1-2.94-1.76,8.41,8.41,0,0,1-2-3,11.09,11.09,0,0,1-.74-4.24Z"/><path class="cls-2" d="M47.88,10.72v5.2H42.83v-5.2Zm-.15,9.61v26.8H43V20.33Z"/></svg>