<svg id="레이어_1" data-name="레이어 1" xmlns="http://www.w3.org/2000/svg" viewBox="0 0 64 64"><defs><style>.cls-1{fill:#fff;}.cls-2{fill:#262933;}</style></defs><title>nimf-m17n-bla</title><path class="cls-1" d="M51.78,0H12.22A12.23,12.23,0,0,0,0,12.22V51.78A12.23,12.23,0,0,0,12.22,64H51.78A12.23,12.23,0,0,0,64,51.78V12.22A12.23,12.23,0,0,0,51.78,0Z"/><path class="cls-2" d="M13.36,23.41a5.85,5.85,0,0,1,2.69-2.79,8,8,0,0,1,3.43-.78,7.23,7.23,0,0,1,6.23,3c1.44,2,2.15,4.79,2.15,8.45V36a17.19,17.19,0,0,1-.62,4.87,11,11,0,0,1-1.75,3.6,7.43,7.43,0,0,1-6.13,3,6.47,6.47,0,0,1-3.88-1.05A6.76,6.76,0,0,1,13.32,44h-.08v3.14H9.56V10.08h3.8Zm0,14.16a5.86,5.86,0,0,0,1.59,4,6.3,6.3,0,0,0,1.78,1.32,5,5,0,0,0,2.28.52,4.27,4.27,0,0,0,3.78-2.11,11,11,0,0,0,1.35-5.93V32a10.86,10.86,0,0,0-1.37-5.93A4.27,4.27,0,0,0,19,24a5.1,5.1,0,0,0-2.2.49A5.49,5.49,0,0,0,15,25.86,6.71,6.71,0,0,0,13.77,28a8.34,8.34,0,0,0-.45,2.82Z"/><path class="cls-2" d="M34.76,10.08V47.13H31V10.08Z"/><path class="cls-2" d="M44.88,47.52a6.77,6.77,0,0,1-5.16-2A7.71,7.71,0,0,1,37.82,40V38.65a8.27,8.27,0,0,1,1.84-5.58q1.85-2.16,6-2.16h5.45V29.34a6.35,6.35,0,0,0-1-4,4.07,4.07,0,0,0-3.39-1.3,6.78,6.78,0,0,0-3.27.74,16.36,16.36,0,0,0-2.88,2L38.6,23.22a17.47,17.47,0,0,1,3.53-2.38,9.87,9.87,0,0,1,4.55-1A9.13,9.13,0,0,1,50,20.4a7,7,0,0,1,2.57,1.67,7.76,7.76,0,0,1,1.69,2.69,10.14,10.14,0,0,1,.6,3.6V47.13H51.19V43.89h0a5.26,5.26,0,0,1-.84,1.35,6.79,6.79,0,0,1-1.16,1.06,7.27,7.27,0,0,1-1.86.9A8.09,8.09,0,0,1,44.88,47.52Zm6.19-12.59H45.7A4.08,4.08,0,0,0,42.51,36a4.27,4.27,0,0,0-1,3v.68a3.43,3.43,0,0,0,1.1,2.84,4.06,4.06,0,0,0,2.63.88A6.52,6.52,0,0,0,47.72,43a6.08,6.08,0,0,0,1.9-1.25,4.18,4.18,0,0,0,1.12-1.69,7.75,7.75,0,0,0,.33-2.48Z"/></svg>