<svg id="레이어_1" data-name="레이어 1" xmlns="http://www.w3.org/2000/svg" viewBox="0 0 64 64"><defs><style>.cls-1{fill:#fff;}.cls-2{fill:#262933;}</style></defs><title>nimf-m17n-cs</title><path class="cls-1" d="M49.6,64H14.4A14.4,14.4,0,0,1,0,49.6V14.4A14.4,14.4,0,0,1,14.4,0H49.6A14.4,14.4,0,0,1,64,14.4V49.6A14.4,14.4,0,0,1,49.6,64Z"/><path class="cls-2" d="M22.57,19.84a15.08,15.08,0,0,1,5.46.83,15.33,15.33,0,0,1,3.8,2.11l-2.25,3.57a11.56,11.56,0,0,0-3.46-1.83,12.66,12.66,0,0,0-3.55-.47,7.6,7.6,0,0,0-2.55.44,5.68,5.68,0,0,0-2.16,1.4,6.85,6.85,0,0,0-1.49,2.42,9.79,9.79,0,0,0-.56,3.53v3.38a10.71,10.71,0,0,0,.56,3.7,6.65,6.65,0,0,0,1.52,2.5,5.9,5.9,0,0,0,2.2,1.4,7.81,7.81,0,0,0,2.58.44,12,12,0,0,0,4.38-.69,13.3,13.3,0,0,0,3.16-1.76l2.3,3.62a14.08,14.08,0,0,1-3.82,2.14,16.7,16.7,0,0,1-6.07,1c-3.73,0-6.59-1.08-8.6-3.23s-3-5.16-3-9V31.89a14.47,14.47,0,0,1,.84-5.12A10.71,10.71,0,0,1,14.16,23a9.89,9.89,0,0,1,3.63-2.36A13.58,13.58,0,0,1,22.57,19.84Z"/><path class="cls-2" d="M43.2,43.4a7.67,7.67,0,0,0,4.11-.93,2.87,2.87,0,0,0,1.47-2.54v-.4a3.77,3.77,0,0,0-.24-1.42,2.43,2.43,0,0,0-.93-1,7.79,7.79,0,0,0-1.87-.8,30.78,30.78,0,0,0-3.08-.76,27.06,27.06,0,0,1-3.92-1.08,10.78,10.78,0,0,1-2.89-1.55,6,6,0,0,1-1.79-2.18,6.91,6.91,0,0,1-.61-3v-.59a6.6,6.6,0,0,1,.58-2.7,6.28,6.28,0,0,1,1.82-2.32A9.4,9.4,0,0,1,39,20.45a14.49,14.49,0,0,1,4.48-.61,20.36,20.36,0,0,1,5.12.61,13.22,13.22,0,0,1,4.39,2l-2.11,3.58a10.86,10.86,0,0,0-3.16-1.57,12.74,12.74,0,0,0-3.9-.59,7.71,7.71,0,0,0-4.28.91,2.72,2.72,0,0,0-1.3,2.33v.44a2.52,2.52,0,0,0,1.32,2.33A15.51,15.51,0,0,0,44,31.25a29.25,29.25,0,0,1,4.26,1.08,10.13,10.13,0,0,1,3,1.59A6.18,6.18,0,0,1,53,36.2a7.87,7.87,0,0,1,.58,3.19V40A6.2,6.2,0,0,1,52.87,43a7,7,0,0,1-2,2.38,10.25,10.25,0,0,1-3.21,1.59,14,14,0,0,1-4.24.59,19.88,19.88,0,0,1-6.12-.88,15.32,15.32,0,0,1-4.66-2.35l2.21-3.73a19.85,19.85,0,0,0,3.87,2A12.39,12.39,0,0,0,43.2,43.4Z"/></svg>