<svg id="레이어_1" data-name="레이어 1" xmlns="http://www.w3.org/2000/svg" viewBox="0 0 64 64"><defs><style>.cls-1{fill:#fff;}.cls-2{fill:#262933;}</style></defs><title>nimf-m17n-th</title><path class="cls-1" d="M51.78,0H12.22A12.23,12.23,0,0,0,0,12.22V51.78A12.23,12.23,0,0,0,12.22,64H51.78A12.23,12.23,0,0,0,64,51.78V12.22A12.23,12.23,0,0,0,51.78,0Z"/><path class="cls-2" d="M14.51,24.39H10.1V20.33h4.41V13.56h4.75v6.77h7.06v4.06H19.26V39.63a6.79,6.79,0,0,0,.24,2,2.45,2.45,0,0,0,.72,1.15,2.58,2.58,0,0,0,1.1.54,6.55,6.55,0,0,0,1.37.14,10.44,10.44,0,0,0,3.53-.63L27,46.64a11.92,11.92,0,0,1-2.2.61,14.5,14.5,0,0,1-2.79.27q-3.83,0-5.64-1.91c-1.21-1.27-1.81-3.27-1.81-6Z"/><path class="cls-2" d="M51.55,47.13H46.8V30.47c0-2.26-.48-3.89-1.42-4.9A5.79,5.79,0,0,0,41,24.05a7.31,7.31,0,0,0-2.43.42,6.6,6.6,0,0,0-2.16,1.22,6.51,6.51,0,0,0-1.56,2,6.17,6.17,0,0,0-.62,2.8V47.13H29.45V10.08H34.2V23.56a8,8,0,0,1,3.21-2.77,10.79,10.79,0,0,1,4.73-.95,11.35,11.35,0,0,1,3.68.58,8.42,8.42,0,0,1,3,1.77,8.13,8.13,0,0,1,2,3,11.15,11.15,0,0,1,.73,4.21Z"/></svg>