<svg id="레이어_1" data-name="레이어 1" xmlns="http://www.w3.org/2000/svg" viewBox="0 0 64 64"><defs><style>.cls-1{fill:#fff;}.cls-2{fill:#262933;}</style></defs><title>nimf-m17n-ug</title><path class="cls-1" d="M49.6,64H14.4A14.4,14.4,0,0,1,0,49.6V14.4A14.4,14.4,0,0,1,14.4,0H49.6A14.4,14.4,0,0,1,64,14.4V49.6A14.4,14.4,0,0,1,49.6,64Z"/><path class="cls-2" d="M7.48,20.33h4.75V37q0,3.38,1.37,4.9A5.61,5.61,0,0,0,18,43.4a7,7,0,0,0,2.4-.41,6.67,6.67,0,0,0,2.13-1.23,6,6,0,0,0,1.55-2,6.42,6.42,0,0,0,.59-2.79V20.33h4.75v26.8H24.77V43.75h-.05a8.25,8.25,0,0,1-3.18,2.86,10.32,10.32,0,0,1-4.75,1A11.15,11.15,0,0,1,13.13,47a8.14,8.14,0,0,1-2.93-1.76,8.3,8.3,0,0,1-2-3,11.1,11.1,0,0,1-.73-4.24Z"/><path class="cls-2" d="M56.13,46.79q0,11.26-12,11.27a15.2,15.2,0,0,1-5-.79,13.74,13.74,0,0,1-3.92-2.06l2.15-3.72a12.23,12.23,0,0,0,3.12,1.62,11.29,11.29,0,0,0,3.79.63,7.39,7.39,0,0,0,5.27-1.69c1.19-1.12,1.79-2.88,1.79-5.26V43.5a6.21,6.21,0,0,1-3.19,2.72,12.17,12.17,0,0,1-4.5.81q-5.1,0-7.77-3t-2.67-8.46V31.35A14.18,14.18,0,0,1,34,26.5a10.26,10.26,0,0,1,2.18-3.63,9.29,9.29,0,0,1,3.36-2.25,11.56,11.56,0,0,1,4.31-.78,9.66,9.66,0,0,1,4.88,1.05,8.3,8.3,0,0,1,2.62,2.23V20.33h4.75Zm-4.7-17.11a4.45,4.45,0,0,0-.52-2.05,5.7,5.7,0,0,0-1.47-1.84,7.63,7.63,0,0,0-2.25-1.3A8.11,8.11,0,0,0,44.37,24a5.72,5.72,0,0,0-4.73,2.11A9.28,9.28,0,0,0,38,32v2.79a9.13,9.13,0,0,0,1.72,5.93,5.74,5.74,0,0,0,4.7,2.11,8,8,0,0,0,2.75-.47,6.67,6.67,0,0,0,2.23-1.35,6.54,6.54,0,0,0,1.51-2.13,6.7,6.7,0,0,0,.57-2.82Z"/></svg>