<svg id="레이어_1" data-name="레이어 1" xmlns="http://www.w3.org/2000/svg" viewBox="0 0 64 64"><defs><style>.cls-1{fill:#fff;}.cls-2{fill:#262933;}</style></defs><title>nimf-m17n-my</title><rect class="cls-1" width="64" height="64" rx="12.22" ry="12.22"/><path class="cls-2" d="M38.24,47.13H34V31.06q0-6.91-4.54-6.91a5.67,5.67,0,0,0-2,.37,5.15,5.15,0,0,0-1.78,1.12,5.69,5.69,0,0,0-1.3,2,7.17,7.17,0,0,0-.51,2.82V47.13H19.54V31.06q0-6.91-4.54-6.91a6.06,6.06,0,0,0-2,.34,5,5,0,0,0-1.78,1.08,5.48,5.48,0,0,0-1.3,1.89,6.62,6.62,0,0,0-.51,2.71v17H5.12V20.33H9.35V24H9.4A6.73,6.73,0,0,1,11.71,21a6.87,6.87,0,0,1,4.13-1.17A7.59,7.59,0,0,1,20.05,21a7.18,7.18,0,0,1,2.71,3.3,10.52,10.52,0,0,1,2.89-3.21,7.77,7.77,0,0,1,4.61-1.24,7.23,7.23,0,0,1,5.86,2.52c1.42,1.68,2.12,4.07,2.12,7.18Z"/><path class="cls-2" d="M50.9,41.74l6.35-21.41h4.5L49.22,58.2l-3.88-1.52,3.13-9.16L39.7,20.33h4.63l6.39,21.41Z"/></svg>