<svg id="레이어_1" data-name="레이어 1" xmlns="http://www.w3.org/2000/svg" viewBox="0 0 64 64"><defs><style>.cls-1{fill:#fff;}.cls-2{fill:#262933;}</style></defs><title>nimf-m17n-am</title><path class="cls-1" d="M51.78,0H12.22A12.23,12.23,0,0,0,0,12.22V51.78A12.23,12.23,0,0,0,12.22,64H51.78A12.23,12.23,0,0,0,64,51.78V12.22A12.23,12.23,0,0,0,51.78,0Z"/><path class="cls-2" d="M11.25,47.52a8.14,8.14,0,0,1-5.8-2A7.24,7.24,0,0,1,3.31,40V38.65a7.68,7.68,0,0,1,2.08-5.58q2.07-2.16,6.7-2.16h6.13V29.34a5.82,5.82,0,0,0-1.17-4,4.89,4.89,0,0,0-3.81-1.3,8.5,8.5,0,0,0-3.69.74,19.16,19.16,0,0,0-3.24,2L4.2,23.22a19.17,19.17,0,0,1,4-2.38,12.17,12.17,0,0,1,5.11-1,11.4,11.4,0,0,1,3.7.56,8,8,0,0,1,2.89,1.67,7.68,7.68,0,0,1,1.9,2.69,9.13,9.13,0,0,1,.68,3.6V47.13h-4.1V43.9h0a5.29,5.29,0,0,1-.95,1.34,7.27,7.27,0,0,1-1.3,1.06,8.53,8.53,0,0,1-2.1.9A10.12,10.12,0,0,1,11.25,47.52Zm7-12.59h-6A5,5,0,0,0,8.58,36,4,4,0,0,0,7.5,39v.68a3.22,3.22,0,0,0,1.24,2.84,4.93,4.93,0,0,0,2.95.88A8.19,8.19,0,0,0,14.45,43a6.91,6.91,0,0,0,2.14-1.25,4.13,4.13,0,0,0,1.25-1.69,6.88,6.88,0,0,0,.38-2.48Z"/><path class="cls-2" d="M59.81,47.13H55.53V31.06c0-4.61-1.52-6.91-4.54-6.91a5.63,5.63,0,0,0-2,.37,5.19,5.19,0,0,0-1.79,1.12,5.84,5.84,0,0,0-1.3,2,7.17,7.17,0,0,0-.51,2.82V47.13H41.11V31.06q0-6.91-4.55-6.91a6,6,0,0,0-2,.34,5.08,5.08,0,0,0-1.79,1.08,5.61,5.61,0,0,0-1.3,1.89A6.62,6.62,0,0,0,31,30.17v17H26.69V20.33h4.23V24h0A6.75,6.75,0,0,1,33.28,21a6.83,6.83,0,0,1,4.12-1.17A7.57,7.57,0,0,1,41.61,21a7.25,7.25,0,0,1,2.72,3.3,10.21,10.21,0,0,1,2.88-3.2,7.72,7.72,0,0,1,4.61-1.25,7.25,7.25,0,0,1,5.87,2.52c1.41,1.68,2.12,4.08,2.12,7.18Z"/></svg>