<svg id="레이어_1" data-name="레이어 1" xmlns="http://www.w3.org/2000/svg" viewBox="0 0 64 64"><defs><style>.cls-1{fill:#fff;}.cls-2{fill:#262933;}</style></defs><title>nimf-m17n-grc</title><path class="cls-1" d="M51.78,0H12.22A12.23,12.23,0,0,0,0,12.22V51.78A12.23,12.23,0,0,0,12.22,64H51.78A12.23,12.23,0,0,0,64,51.78V12.22A12.23,12.23,0,0,0,51.78,0Z"/><path class="cls-2" d="M24.49,46.79q0,11.26-9.56,11.27a10,10,0,0,1-4-.79,10.62,10.62,0,0,1-3.14-2.06l1.73-3.72A9.07,9.07,0,0,0,12,53.11a7.42,7.42,0,0,0,3,.63,5.2,5.2,0,0,0,4.21-1.69c.95-1.12,1.43-2.88,1.43-5.26V43.5a5.48,5.48,0,0,1-2.55,2.72,8,8,0,0,1-3.6.81,7.21,7.21,0,0,1-6.22-3q-2.13-3-2.13-8.46V31.35a17.66,17.66,0,0,1,.62-4.85,11,11,0,0,1,1.75-3.63,7.59,7.59,0,0,1,2.68-2.25,7.67,7.67,0,0,1,3.45-.78,6.45,6.45,0,0,1,3.9,1.05,7.15,7.15,0,0,1,2.1,2.23V20.33h3.8ZM20.73,29.68a5.55,5.55,0,0,0-.41-2.05,5.85,5.85,0,0,0-1.18-1.84,6,6,0,0,0-1.8-1.3A5.29,5.29,0,0,0,15.09,24a4.26,4.26,0,0,0-3.79,2.11A11,11,0,0,0,10,32v2.79a10.89,10.89,0,0,0,1.37,5.93,4.29,4.29,0,0,0,3.77,2.11,5.22,5.22,0,0,0,2.19-.47,5.17,5.17,0,0,0,1.78-1.35,6.71,6.71,0,0,0,1.22-2.13,8.26,8.26,0,0,0,.45-2.82Z"/><path class="cls-2" d="M40.33,25a5.54,5.54,0,0,0-1.2-.46,5.28,5.28,0,0,0-1.43-.18,4.24,4.24,0,0,0-2,.52A4.86,4.86,0,0,0,34,26.33a7.85,7.85,0,0,0-1.14,2.28,9.17,9.17,0,0,0-.43,2.89V47.13h-3.8V20.33h3.68v4.26h0a9.07,9.07,0,0,1,2.45-3.51,5.88,5.88,0,0,1,3.86-1.24,7.56,7.56,0,0,1,2.79.54Z"/><path class="cls-2" d="M51.07,19.84a9.87,9.87,0,0,1,4.37.83,11.81,11.81,0,0,1,3,2.11l-1.8,3.57a8.78,8.78,0,0,0-2.77-1.83,8.21,8.21,0,0,0-2.84-.47,5,5,0,0,0-2,.44,4.56,4.56,0,0,0-1.72,1.4,7.3,7.3,0,0,0-1.2,2.42,12.17,12.17,0,0,0-.45,3.53v3.38a13.33,13.33,0,0,0,.45,3.7,7.2,7.2,0,0,0,1.22,2.5,4.75,4.75,0,0,0,1.76,1.4,5.12,5.12,0,0,0,2.06.44,7.89,7.89,0,0,0,3.51-.69,10.44,10.44,0,0,0,2.53-1.76L59,44.43a10.49,10.49,0,0,1-7.92,3.09,8.08,8.08,0,0,1-6.88-3.23c-1.61-2.16-2.41-5.16-2.41-9V31.89a17.7,17.7,0,0,1,.67-5.12A11.27,11.27,0,0,1,44.35,23a8,8,0,0,1,2.9-2.36A8.94,8.94,0,0,1,51.07,19.84Z"/></svg>