<svg id="레이어_1" data-name="레이어 1" xmlns="http://www.w3.org/2000/svg" viewBox="0 0 64 64"><defs><style>.cls-1{fill:#fff;}.cls-2{fill:#262933;}</style></defs><title>nimf-m17n-cr</title><path class="cls-1" d="M51.78,0H12.22A12.23,12.23,0,0,0,0,12.22V51.78A12.23,12.23,0,0,0,12.22,64H51.78A12.23,12.23,0,0,0,64,51.78V12.22A12.23,12.23,0,0,0,51.78,0Z"/><path class="cls-2" d="M24.55,19.84a15.14,15.14,0,0,1,5.47.83,15.26,15.26,0,0,1,3.79,2.11l-2.25,3.57a11.41,11.41,0,0,0-3.45-1.83,12.73,12.73,0,0,0-3.56-.47,7.6,7.6,0,0,0-2.55.44,5.72,5.72,0,0,0-2.15,1.4,7,7,0,0,0-1.5,2.42,10,10,0,0,0-.56,3.53v3.38a11,11,0,0,0,.56,3.7,6.92,6.92,0,0,0,1.52,2.5,5.94,5.94,0,0,0,2.21,1.4,7.76,7.76,0,0,0,2.57.44A12,12,0,0,0,29,42.57a13.3,13.3,0,0,0,3.16-1.76l2.3,3.62a14.23,14.23,0,0,1-3.82,2.14,16.76,16.76,0,0,1-6.08,1q-5.58,0-8.6-3.23t-3-9V31.89a14.7,14.7,0,0,1,.83-5.12A10.73,10.73,0,0,1,16.15,23a9.8,9.8,0,0,1,3.63-2.36A13.56,13.56,0,0,1,24.55,19.84Z"/><path class="cls-2" d="M51.45,25A7.88,7.88,0,0,0,50,24.52a8.28,8.28,0,0,0-1.79-.18,6.39,6.39,0,0,0-2.52.52,6,6,0,0,0-2.09,1.47,7.47,7.47,0,0,0-1.42,2.28,7.55,7.55,0,0,0-.54,2.89V47.13H36.85V20.33h4.61v4.26h0a9.23,9.23,0,0,1,3.06-3.51,8.6,8.6,0,0,1,4.83-1.24,11.48,11.48,0,0,1,3.47.54Z"/></svg>