<svg id="레이어_1" data-name="레이어 1" xmlns="http://www.w3.org/2000/svg" viewBox="0 0 64 64"><defs><style>.cls-1{fill:#fff;}.cls-2{fill:#262933;}</style></defs><title>nimf-m17n-te</title><rect class="cls-1" width="64" height="64" rx="12.22" ry="12.22"/><path class="cls-2" d="M14.19,24.39H9.78V20.33h4.41V13.56h4.75v6.77H26v4.06H18.94V39.63a6.43,6.43,0,0,0,.25,2,2.44,2.44,0,0,0,.71,1.15,2.64,2.64,0,0,0,1.1.54,6.55,6.55,0,0,0,1.37.14,10.44,10.44,0,0,0,3.53-.63l.73,3.82a11.92,11.92,0,0,1-2.2.61,14.5,14.5,0,0,1-2.79.27q-3.83,0-5.64-1.91c-1.21-1.27-1.81-3.27-1.81-6Z"/><path class="cls-2" d="M52.31,44.58a17.4,17.4,0,0,1-4.21,2.08,18.85,18.85,0,0,1-6.13.86,14.68,14.68,0,0,1-4.63-.71,10,10,0,0,1-3.72-2.2,10.09,10.09,0,0,1-2.5-3.85,15.41,15.41,0,0,1-.91-5.59v-3a15.34,15.34,0,0,1,.86-5.34A10.55,10.55,0,0,1,33.47,23a10.06,10.06,0,0,1,3.65-2.33,13.16,13.16,0,0,1,4.61-.78A10.86,10.86,0,0,1,49.91,23c2,2.09,3,5.05,3,8.87v3.58h-18v.19a7.81,7.81,0,0,0,2,5.81,7.16,7.16,0,0,0,5.25,2,14.4,14.4,0,0,0,4.53-.63A15.43,15.43,0,0,0,50.3,41ZM41.73,23.9a6.94,6.94,0,0,0-2.72.52A6.3,6.3,0,0,0,35.43,28a7.68,7.68,0,0,0-.51,2.82v.69H48.34v-.88a6.84,6.84,0,0,0-1.76-4.93A6.44,6.44,0,0,0,41.73,23.9Z"/></svg>