<svg id="레이어_1" data-name="레이어 1" xmlns="http://www.w3.org/2000/svg" viewBox="0 0 64 64"><defs><style>.cls-1{fill:#fff;}.cls-2{fill:#262933;}</style></defs><title>nimf-m17n-uk</title><rect class="cls-1" width="64" height="64" rx="12.22" ry="12.22"/><path class="cls-2" d="M8.33,20.33h4.76V37c0,2.25.45,3.88,1.37,4.9a5.61,5.61,0,0,0,4.36,1.51,7,7,0,0,0,2.4-.41,6.89,6.89,0,0,0,2.13-1.23,6.09,6.09,0,0,0,1.55-2,6.42,6.42,0,0,0,.58-2.79V20.33h4.76v26.8H25.63V43.75h-.05a8.33,8.33,0,0,1-3.18,2.86,10.33,10.33,0,0,1-4.76,1A11.13,11.13,0,0,1,14,47a8.27,8.27,0,0,1-2.94-1.76,8.41,8.41,0,0,1-2-3,11.09,11.09,0,0,1-.74-4.24Z"/><path class="cls-2" d="M47.19,31.06,58.41,47.13h-6L43.91,34.39l-3.73,3.77v9H35.43V10.08h4.75v22.3L51.65,20.33h6.12Z"/></svg>