<svg id="레이어_1" data-name="레이어 1" xmlns="http://www.w3.org/2000/svg" viewBox="0 0 64 64"><defs><style>.cls-1{fill:#fff;}.cls-2{fill:#262933;}</style></defs><title>nimf-m17n-sk</title><path class="cls-1" d="M49.6,64H14.4A14.4,14.4,0,0,1,0,49.6V14.4A14.4,14.4,0,0,1,14.4,0H49.6A14.4,14.4,0,0,1,64,14.4V49.6A14.4,14.4,0,0,1,49.6,64Z"/><path class="cls-2" d="M19.43,43.4a7.69,7.69,0,0,0,4.12-.93A2.87,2.87,0,0,0,25,39.93v-.4a3.57,3.57,0,0,0-.25-1.42,2.31,2.31,0,0,0-.93-1,7.88,7.88,0,0,0-1.86-.8,30.38,30.38,0,0,0-3.09-.76A27.43,27.43,0,0,1,15,34.44a11.09,11.09,0,0,1-2.89-1.55,6,6,0,0,1-1.79-2.18,6.91,6.91,0,0,1-.61-3v-.59a6.61,6.61,0,0,1,.59-2.7,6.25,6.25,0,0,1,1.81-2.32,9.6,9.6,0,0,1,3.11-1.62,14.6,14.6,0,0,1,4.49-.61,20.42,20.42,0,0,1,5.12.61,13.26,13.26,0,0,1,4.38,2l-2.1,3.58a11,11,0,0,0-3.16-1.57A12.83,12.83,0,0,0,20,23.9a7.77,7.77,0,0,0-4.29.91,2.75,2.75,0,0,0-1.3,2.33v.44a2.53,2.53,0,0,0,1.33,2.33,15.51,15.51,0,0,0,4.46,1.34,29.25,29.25,0,0,1,4.26,1.08,10.26,10.26,0,0,1,3,1.59,6.16,6.16,0,0,1,1.76,2.28,7.87,7.87,0,0,1,.59,3.19V40A6.32,6.32,0,0,1,29.11,43a7,7,0,0,1-2,2.38,10.47,10.47,0,0,1-3.21,1.59,14,14,0,0,1-4.24.59,19.9,19.9,0,0,1-6.13-.88,15.14,15.14,0,0,1-4.65-2.35l2.2-3.73a19.85,19.85,0,0,0,3.87,2A12.46,12.46,0,0,0,19.43,43.4Z"/><path class="cls-2" d="M44.81,31.06,56,47.13h-6L41.53,34.39l-3.72,3.77v9H33.05V10.08h4.76v22.3L49.27,20.33H55.4Z"/></svg>