<svg id="레이어_1" data-name="레이어 1" xmlns="http://www.w3.org/2000/svg" viewBox="0 0 64 64"><defs><style>.cls-1{fill:#fff;}.cls-2{fill:#262933;}</style></defs><title>nimf-m17n-fa</title><rect class="cls-1" width="64" height="64" rx="12.22" ry="12.22"/><path class="cls-2" d="M15.93,24.39H11.52V20.33h4.41V17.68q0-4.06,2-6a8.09,8.09,0,0,1,5.81-1.91,18.31,18.31,0,0,1,2.62.2,11.36,11.36,0,0,1,2.18.49l-.73,3.87a13.41,13.41,0,0,0-3.63-.49,6.28,6.28,0,0,0-1.32.14,2.37,2.37,0,0,0-1.1.57,2.85,2.85,0,0,0-.76,1.2,6,6,0,0,0-.3,2.11v2.45h7.06v4.06H20.68V47.13H15.93Z"/><path class="cls-2" d="M38,47.52a9.69,9.69,0,0,1-6.45-2A6.87,6.87,0,0,1,29.16,40V38.65a7.27,7.27,0,0,1,2.3-5.58q2.31-2.16,7.45-2.16h6.81V29.34a5.41,5.41,0,0,0-1.3-4c-.86-.87-2.28-1.3-4.24-1.3a10.3,10.3,0,0,0-4.09.74,21.52,21.52,0,0,0-3.6,2l-2.35-3.53a22,22,0,0,1,4.41-2.38,14.89,14.89,0,0,1,5.68-1,14.06,14.06,0,0,1,4.12.56,9.25,9.25,0,0,1,3.21,1.67,7.59,7.59,0,0,1,2.1,2.69,8.2,8.2,0,0,1,.76,3.6V47.13H45.87V43.89h0a5,5,0,0,1-1.06,1.35,7.86,7.86,0,0,1-1.44,1.06,10.06,10.06,0,0,1-2.33.9A12.45,12.45,0,0,1,38,47.52Zm7.74-12.59H39A5.93,5.93,0,0,0,35,36a3.79,3.79,0,0,0-1.2,3v.68a3.13,3.13,0,0,0,1.37,2.84,6,6,0,0,0,3.29.88A10,10,0,0,0,41.53,43a7.86,7.86,0,0,0,2.38-1.25,4.17,4.17,0,0,0,1.39-1.69,6.22,6.22,0,0,0,.42-2.48Z"/></svg>