<svg id="레이어_1" data-name="레이어 1" xmlns="http://www.w3.org/2000/svg" viewBox="0 0 64 64"><defs><style>.cls-1{fill:#fff;}.cls-2{fill:#262933;}</style></defs><title>nimf-m17n-sr</title><rect class="cls-1" width="64" height="64" rx="12.22" ry="12.22"/><path class="cls-2" d="M23,43.4a7.71,7.71,0,0,0,4.12-.93,2.87,2.87,0,0,0,1.47-2.54v-.4a3.76,3.76,0,0,0-.25-1.42,2.31,2.31,0,0,0-.93-1,7.88,7.88,0,0,0-1.86-.8,31.07,31.07,0,0,0-3.09-.76,27.06,27.06,0,0,1-3.92-1.08,10.93,10.93,0,0,1-2.89-1.55,6,6,0,0,1-1.79-2.18,6.91,6.91,0,0,1-.61-3v-.59a6.61,6.61,0,0,1,.59-2.7,6.25,6.25,0,0,1,1.81-2.32,9.5,9.5,0,0,1,3.11-1.62,14.55,14.55,0,0,1,4.49-.61,20.47,20.47,0,0,1,5.12.61,13.26,13.26,0,0,1,4.38,2L30.6,26.06a10.73,10.73,0,0,0-3.16-1.57,12.72,12.72,0,0,0-3.89-.59,7.75,7.75,0,0,0-4.29.91A2.72,2.72,0,0,0,18,27.14v.44a2.51,2.51,0,0,0,1.33,2.33,15.42,15.42,0,0,0,4.45,1.34A29.07,29.07,0,0,1,28,32.33a10.39,10.39,0,0,1,3,1.59,6.16,6.16,0,0,1,1.76,2.28,7.87,7.87,0,0,1,.59,3.19V40A6.32,6.32,0,0,1,32.64,43a7,7,0,0,1-2,2.38,10.25,10.25,0,0,1-3.21,1.59,13.91,13.91,0,0,1-4.23.59A19.9,19.9,0,0,1,17,46.64a15.14,15.14,0,0,1-4.65-2.35l2.2-3.73a19.85,19.85,0,0,0,3.87,2A12.43,12.43,0,0,0,23,43.4Z"/><path class="cls-2" d="M51.18,25a7.88,7.88,0,0,0-1.49-.46,8.28,8.28,0,0,0-1.79-.18,6.39,6.39,0,0,0-2.52.52,6,6,0,0,0-2.09,1.47,7.47,7.47,0,0,0-1.42,2.28,7.55,7.55,0,0,0-.54,2.89V47.13H36.58V20.33h4.61v4.26h.05a9.23,9.23,0,0,1,3.06-3.51,8.62,8.62,0,0,1,4.83-1.24,11.48,11.48,0,0,1,3.47.54Z"/></svg>