<svg id="레이어_1" data-name="레이어 1" xmlns="http://www.w3.org/2000/svg" viewBox="0 0 64 64"><defs><style>.cls-1{fill:#fff;}.cls-2{fill:#262933;}</style></defs><title>nimf-m17n-ur</title><rect class="cls-1" width="64" height="64" rx="12.22" ry="12.22"/><path class="cls-2" d="M12.86,20.33h4.76V37c0,2.25.45,3.88,1.37,4.9a5.59,5.59,0,0,0,4.36,1.51,7.13,7.13,0,0,0,2.4-.41,6.89,6.89,0,0,0,2.13-1.23,5.94,5.94,0,0,0,1.54-2A6.28,6.28,0,0,0,30,36.94V20.33h4.75v26.8h-4.6V43.75h-.05a8.28,8.28,0,0,1-3.19,2.86,10.29,10.29,0,0,1-4.75,1A11.13,11.13,0,0,1,18.52,47a8.1,8.1,0,0,1-2.94-1.76,8.41,8.41,0,0,1-2-3,11.09,11.09,0,0,1-.74-4.24Z"/><path class="cls-2" d="M54.56,25a8.44,8.44,0,0,0-3.28-.64,6.4,6.4,0,0,0-2.53.52,6,6,0,0,0-2.08,1.47,7.29,7.29,0,0,0-1.42,2.28,7.55,7.55,0,0,0-.54,2.89V47.13H40V20.33h4.6v4.26h0a9.33,9.33,0,0,1,3.07-3.51,8.56,8.56,0,0,1,4.82-1.24,11.49,11.49,0,0,1,3.48.54Z"/></svg>